<svg width="88" height="75" viewBox="0 0 88 75" fill="none" xmlns="http://www.w3.org/2000/svg">
<g filter="url(#filter0_dd)">
<path d="M31.4957 7.58134C32.7334 5.36982 35.0698 4 37.6041 4H45H50.4325C52.9473 4 55.2688 5.34897 56.5141 7.53382L68.7487 29L80.873 50L83.4852 54.5164C84.7327 56.6733 84.7396 59.3307 83.5034 61.494L81.5 65L79.5781 67.8829C78.2798 69.8303 76.0942 71 73.7537 71H68.7487H44.5H15.0206C12.5309 71 10.2286 69.6776 8.97414 67.5271L7.5 65L5.60333 61.2067C4.59662 59.1932 4.61962 56.8185 5.66514 54.825L14.7513 37.5L31.4957 7.58134Z" fill="white"/>
</g>
<defs>
<filter id="filter0_dd" x="0.864258" y="0" width="86.5614" height="75" filterUnits="userSpaceOnUse" color-interpolation-filters="sRGB">
<feFlood flood-opacity="0" result="BackgroundImageFix"/>
<feColorMatrix in="SourceAlpha" type="matrix" values="0 0 0 0 0 0 0 0 0 0 0 0 0 0 0 0 0 0 127 0"/>
<feOffset dx="-2" dy="2"/>
<feGaussianBlur stdDeviation="1"/>
<feColorMatrix type="matrix" values="0 0 0 0 0.2 0 0 0 0 0.392157 0 0 0 0 0.615686 0 0 0 0.66 0"/>
<feBlend mode="normal" in2="BackgroundImageFix" result="effect1_dropShadow"/>
<feColorMatrix in="SourceAlpha" type="matrix" values="0 0 0 0 0 0 0 0 0 0 0 0 0 0 0 0 0 0 127 0"/>
<feOffset dx="1" dy="-2"/>
<feGaussianBlur stdDeviation="1"/>
<feColorMatrix type="matrix" values="0 0 0 0 0.2 0 0 0 0 0.392157 0 0 0 0 0.615686 0 0 0 0.66 0"/>
<feBlend mode="normal" in2="effect1_dropShadow" result="effect2_dropShadow"/>
<feBlend mode="normal" in="SourceGraphic" in2="effect2_dropShadow" result="shape"/>
</filter>
</defs>
</svg>
