<svg width="630" height="380" viewBox="0 0 630 380" fill="none" xmlns="http://www.w3.org/2000/svg">
<path d="M88.9117 227.257V182.098H0.373047V146.027L101.921 15.6729H129.527V145.727H156.253V182.163H129.527V227.321L88.9117 227.257ZM41.0095 145.813H93.4341V77.2277L41.0095 145.813Z" fill="white"/>
<path d="M562.019 227.257V182.098H473.459V146.027L575.007 15.6729H602.613V145.727H629.297V182.163H602.656V227.321L562.019 227.257ZM514.138 145.813H566.563V77.2277L514.138 145.813Z" fill="white"/>
<path opacity="0.15" d="M452.696 207.509L453.349 206.908C453.585 206.693 453.776 206.434 453.912 206.146C454.048 205.857 454.125 205.545 454.14 205.226C454.155 204.907 454.106 204.589 453.998 204.289C453.89 203.989 453.723 203.713 453.508 203.478L440.135 188.821C457.133 167.331 465.431 140.213 463.373 112.868C461.316 85.5236 449.055 59.9589 429.033 41.2662C409.01 22.5735 382.696 12.1248 355.331 12.0011C327.967 11.8775 301.56 22.088 281.37 40.5989C261.18 59.1099 248.69 84.5628 246.386 111.888C244.083 139.213 252.136 166.405 268.941 188.047C285.745 209.69 310.069 224.195 337.067 228.673C364.065 233.151 391.755 227.274 414.623 212.212L428.014 226.851C428.226 227.087 428.483 227.278 428.769 227.414C429.056 227.549 429.367 227.627 429.683 227.642C430 227.656 430.316 227.608 430.614 227.5C430.912 227.391 431.185 227.225 431.419 227.01L432.089 226.409L531.261 335H569L452.696 207.509Z" fill="#212121"/>
<path d="M581.677 355.017L419.804 194L399 214.694L560.891 375.711C562.33 377.142 564.051 378.261 565.946 378.997C567.841 379.733 569.869 380.07 571.902 379.988C573.935 379.905 575.928 379.404 577.757 378.517C579.585 377.63 581.209 376.375 582.526 374.832C584.909 372.025 586.144 368.43 585.987 364.76C585.829 361.09 584.291 357.612 581.677 355.017Z" fill="#156D9D"/>
<path d="M383 203.876L403.418 224.263C403.916 224.736 404.577 225 405.265 225C405.952 225 406.613 224.736 407.111 224.263L430.262 201.147C430.736 200.65 431 199.99 431 199.304C431 198.618 430.736 197.958 430.262 197.461L409.917 177L383 203.876Z" fill="#E0E0E0"/>
<path d="M416.273 183L419 185.712L396.078 219L386 208.981L416.273 183Z" fill="#BDBDBD"/>
<path opacity="0.64" d="M409 223.213L429.6 203L431 204.374L414.898 229L409 223.213Z" fill="#212121"/>
<path d="M321.5 0C298.656 0 276.326 6.77396 257.332 19.4653C238.338 32.1566 223.534 50.1952 214.792 71.3C206.05 92.4049 203.763 115.628 208.219 138.033C212.676 160.438 223.676 181.018 239.829 197.171C255.982 213.324 276.562 224.324 298.967 228.781C321.372 233.237 344.595 230.95 365.7 222.208C386.805 213.466 404.843 198.662 417.535 179.668C430.226 160.674 437 138.344 437 115.5C436.995 84.8689 424.825 55.4938 403.166 33.8343C381.506 12.1749 352.131 0.0047027 321.5 0ZM321.5 207.127C303.378 207.127 285.663 201.753 270.595 191.685C255.527 181.617 243.783 167.307 236.848 150.564C229.913 133.821 228.099 115.398 231.634 97.6245C235.169 79.8507 243.896 63.5244 256.71 50.7101C269.524 37.8959 285.851 29.1693 303.625 25.6339C321.398 22.0984 339.821 23.913 356.564 30.848C373.307 37.783 387.617 49.527 397.685 64.5949C407.753 79.6628 413.127 97.3779 413.127 115.5C413.127 127.533 410.757 139.447 406.152 150.564C401.547 161.681 394.798 171.782 386.29 180.29C377.782 188.798 367.681 195.547 356.564 200.152C345.447 204.757 333.533 207.127 321.5 207.127Z" fill="white"/>
<path opacity="0.8" d="M321 206C371.258 206 412 165.258 412 115C412 64.7421 371.258 24 321 24C270.742 24 230 64.7421 230 115C230 165.258 270.742 206 321 206Z" fill="#5D99BB"/>
<path d="M260.365 54.3497C247.266 67.4797 239.323 80.891 242.83 84.2306C246.337 87.5703 259.593 79.7309 272.639 66.6536C285.685 53.5763 293.681 40.1122 290.174 36.7726C286.667 33.433 273.463 41.2196 260.365 54.3497Z" fill="#0E4D70"/>
</svg>
