<svg width="668" height="220" viewBox="0 0 668 220" fill="none" xmlns="http://www.w3.org/2000/svg">
<path d="M5.40914 114.778L17.6893 12H136.983V45.4722H52.3371L47.0741 88.9444C57.1127 83.8519 67.7848 81.3056 79.0904 81.3056C99.3624 81.3056 115.249 87.2778 126.749 99.2222C138.25 111.167 144 127.88 144 149.361C144 162.417 141.076 174.13 135.228 184.5C129.478 194.778 121.194 202.787 110.376 208.528C99.5574 214.176 86.7898 217 72.0731 217C59.2081 217 47.269 214.546 36.2558 209.639C25.2426 204.639 16.5198 197.648 10.0873 188.667C3.75228 179.685 0.389848 169.454 0 157.972H41.8112C42.6883 166.398 45.7584 172.972 51.0213 177.694C56.3817 182.324 63.3503 184.639 71.9269 184.639C81.4782 184.639 88.8365 181.398 94.002 174.917C99.1675 168.343 101.75 159.083 101.75 147.139C101.75 135.657 98.7777 126.861 92.8325 120.75C86.8873 114.639 78.4568 111.583 67.5411 111.583C57.5025 111.583 49.3645 114.083 43.1269 119.083L39.0335 122.694L5.40914 114.778Z" fill="white"/>
<path d="M668 128.529C668 158.137 659.616 180.784 642.848 196.471C626.079 212.157 601.53 220 569.201 220C537.274 220 512.86 212.304 495.957 196.912C479.055 181.52 470.402 159.461 470 130.735V91.3235C470 61.4216 478.451 38.7255 495.354 23.2353C512.39 7.7451 536.872 0 568.799 0C600.726 0 625.14 7.69608 642.043 23.0882C658.945 38.3824 667.598 60.3922 668 89.1176V128.529ZM613.5 81.5C613.5 63.7549 607.207 54.0686 600.5 46.0294C593.927 37.8922 582.884 34.4118 568.799 34.4118C555.116 34.4118 544.988 38.2843 538.415 46.0294C531.976 53.6765 525.902 65.1274 525.5 81.5V134.118C526.5 157 531.372 164.559 537.811 173.088C544.384 181.52 554.848 185.735 569.201 185.735C583.421 185.735 593.683 181.667 599.988 173.529C606.293 165.392 610.5 160.5 613.5 134.118V81.5Z" fill="white"/>
</svg>
