<svg width="28" height="28" viewBox="0 0 28 28" fill="none" xmlns="http://www.w3.org/2000/svg">
<circle cx="14" cy="14" r="13.5" fill="white" stroke="#19628B"/>
<g filter="url(#filter0_dddi)">
<path d="M12.7962 22H9V6H15.7516C17.0425 6 18.0616 6.18773 18.8089 6.5632C19.5732 6.93867 20.1253 7.536 20.465 8.3552C20.8217 9.1744 21 10.2752 21 11.6576C21 13.6715 20.6093 15.1392 19.828 16.0608C19.0637 16.9653 17.8323 17.4176 16.1338 17.4176H12.7962V22ZM15.6497 14.576C16.1592 14.576 16.5159 14.4992 16.7197 14.3456C16.9236 14.192 17.0255 13.9104 17.0255 13.5008V10.224C17.0255 9.8144 16.9236 9.5328 16.7197 9.3792C16.5159 9.2256 16.1592 9.1488 15.6497 9.1488H12.7962V14.576H15.6497Z" fill="#19628B"/>
</g>
<defs>
<filter id="filter0_dddi" x="4" y="1" width="22" height="26" filterUnits="userSpaceOnUse" color-interpolation-filters="sRGB">
<feFlood flood-opacity="0" result="BackgroundImageFix"/>
<feColorMatrix in="SourceAlpha" type="matrix" values="0 0 0 0 0 0 0 0 0 0 0 0 0 0 0 0 0 0 127 0"/>
<feOffset/>
<feGaussianBlur stdDeviation="1"/>
<feColorMatrix type="matrix" values="0 0 0 0 1 0 0 0 0 1 0 0 0 0 1 0 0 0 0.4 0"/>
<feBlend mode="normal" in2="BackgroundImageFix" result="effect1_dropShadow"/>
<feColorMatrix in="SourceAlpha" type="matrix" values="0 0 0 0 0 0 0 0 0 0 0 0 0 0 0 0 0 0 127 0"/>
<feOffset/>
<feGaussianBlur stdDeviation="2.5"/>
<feColorMatrix type="matrix" values="0 0 0 0 1 0 0 0 0 1 0 0 0 0 1 0 0 0 1 0"/>
<feBlend mode="normal" in2="effect1_dropShadow" result="effect2_dropShadow"/>
<feColorMatrix in="SourceAlpha" type="matrix" values="0 0 0 0 0 0 0 0 0 0 0 0 0 0 0 0 0 0 127 0"/>
<feOffset/>
<feGaussianBlur stdDeviation="1"/>
<feColorMatrix type="matrix" values="0 0 0 0 1 0 0 0 0 1 0 0 0 0 1 0 0 0 1 0"/>
<feBlend mode="normal" in2="effect2_dropShadow" result="effect3_dropShadow"/>
<feBlend mode="normal" in="SourceGraphic" in2="effect3_dropShadow" result="shape"/>
<feColorMatrix in="SourceAlpha" type="matrix" values="0 0 0 0 0 0 0 0 0 0 0 0 0 0 0 0 0 0 127 0" result="hardAlpha"/>
<feOffset dy="2"/>
<feGaussianBlur stdDeviation="1"/>
<feComposite in2="hardAlpha" operator="arithmetic" k2="-1" k3="1"/>
<feColorMatrix type="matrix" values="0 0 0 0 0 0 0 0 0 0 0 0 0 0 0 0 0 0 0.45 0"/>
<feBlend mode="normal" in2="shape" result="effect4_innerShadow"/>
</filter>
</defs>
</svg>
