<svg width="30" height="30" viewBox="0 0 30 30" fill="none" xmlns="http://www.w3.org/2000/svg">
<g clip-path="url(#clip0)">
<path d="M24.3 22.8262C22.5638 22.8262 21.1502 24.2897 21.1502 26.087C21.1502 27.8844 22.5638 29.3479 24.3 29.3479C26.0362 29.3479 27.4497 27.8845 27.4497 26.087C27.4497 24.2896 26.0361 22.8262 24.3 22.8262ZM24.3 28.0435C23.258 28.0435 22.4101 27.1657 22.4101 26.087C22.4101 25.0083 23.258 24.1305 24.3 24.1305C25.3419 24.1305 26.1898 25.0083 26.1898 26.087C26.1898 27.1657 25.3419 28.0435 24.3 28.0435Z" fill="url(#paint0_linear)"/>
<path d="M11.7008 22.8262C9.9647 22.8262 8.55109 24.2897 8.55109 26.087C8.55109 27.8844 9.9647 29.3479 11.7008 29.3479C13.437 29.3479 14.8506 27.8845 14.8506 26.0871C14.8506 24.2897 13.437 22.8262 11.7008 22.8262ZM11.7008 28.0435C10.6589 28.0435 9.81098 27.1657 9.81098 26.087C9.81098 25.0083 10.6589 24.1305 11.7008 24.1305C12.7428 24.1305 13.5907 25.0083 13.5907 26.087C13.5907 27.1657 12.7428 28.0435 11.7008 28.0435Z" fill="url(#paint1_linear)"/>
<path d="M26.8198 20.2176H12.2791C10.7836 20.2176 9.48469 19.1154 9.19111 17.5958L6.01868 1.17669C5.95944 0.871474 5.70118 0.652344 5.40134 0.652344H1.62161C1.27388 0.652344 0.991638 0.944538 0.991638 1.30454C0.991638 1.66454 1.27388 1.95673 1.62161 1.95673H4.88476L7.95514 17.8528C8.36589 19.9789 10.1852 21.522 12.2791 21.522H26.8198C27.1675 21.522 27.4497 21.2298 27.4497 20.8698C27.4497 20.5098 27.1675 20.2176 26.8198 20.2176Z" fill="url(#paint2_linear)"/>
<path d="M29.8121 4.78584C29.6924 4.64626 29.521 4.56543 29.3396 4.56543H6.66122C6.31349 4.56543 6.03125 4.85762 6.03125 5.21763C6.03125 5.57763 6.31349 5.86976 6.66122 5.86976H28.6265L27.7307 13.2863C27.6123 14.2633 26.8059 15.0002 25.8547 15.0002H8.55109C8.20335 15.0002 7.92111 15.2924 7.92111 15.6524C7.92111 16.0124 8.20335 16.3046 8.55109 16.3046H25.8547C27.4396 16.3046 28.784 15.0772 28.9805 13.4481L29.9645 5.29845C29.9872 5.1132 29.9318 4.92537 29.8121 4.78584Z" fill="url(#paint3_linear)"/>
</g>
<defs>
<linearGradient id="paint0_linear" x1="21.9677" y1="17.5698" x2="28.1987" y2="19.1512" gradientUnits="userSpaceOnUse">
<stop offset="0.139582" stop-color="#EB1414"/>
<stop offset="1" stop-color="#940909"/>
</linearGradient>
<linearGradient id="paint1_linear" x1="9.36858" y1="17.5698" x2="15.5995" y2="19.1512" gradientUnits="userSpaceOnUse">
<stop offset="0.139582" stop-color="#EB1414"/>
<stop offset="1" stop-color="#940909"/>
</linearGradient>
<linearGradient id="paint2_linear" x1="4.42513" y1="-16.1679" x2="29.4989" y2="-7.81596" gradientUnits="userSpaceOnUse">
<stop offset="0.139582" stop-color="#EB1414"/>
<stop offset="1" stop-color="#940909"/>
</linearGradient>
<linearGradient id="paint3_linear" x1="9.13773" y1="-4.89597" x2="28.7195" y2="5.59543" gradientUnits="userSpaceOnUse">
<stop offset="0.139582" stop-color="#EB1414"/>
<stop offset="1" stop-color="#940909"/>
</linearGradient>
<clipPath id="clip0">
<rect width="28.9779" height="30" fill="white" transform="translate(0.991638)"/>
</clipPath>
</defs>
</svg>
