<svg width="30" height="30" viewBox="0 0 30 30" fill="none" xmlns="http://www.w3.org/2000/svg">
<g clip-path="url(#clip0)">
<path d="M10.0001 1.66699L8.33339 6.11144L7.77783 7.7781V26.1114L9.4445 28.8892H21.6667L23.3334 26.1114V7.7781L22.7778 6.66699L20.5556 1.66699H10.0001Z" fill="#F3F4F6"/>
<path d="M21.9999 2.30784H22.9808C23.6708 2.30784 24.2308 1.94015 24.2308 1.25015C24.1937 0.483997 23.1947 0.384766 22.5047 0.384766H20.4808H10.4808H8.22592C7.53592 0.384766 6.77431 0.483997 6.73083 1.25015C6.73083 1.94015 7.29084 2.30784 7.98084 2.30784H8.88602L6.82021 7.03578C6.80458 7.07453 6.79708 7.11453 6.78521 7.1539C6.77521 7.18828 6.76208 7.2214 6.75521 7.25702C6.73958 7.33702 6.73083 7.41828 6.73083 7.50015V26.2501C6.73083 26.4445 6.77584 26.6358 6.86271 26.8095L8.11271 29.3095C8.32459 29.7327 8.75709 30.0001 9.23084 30.0001H21.7308C22.2046 30.0001 22.6371 29.7327 22.849 29.3095L24.099 26.8095C24.1858 26.6358 24.2308 26.4445 24.2308 26.2501V7.50015C24.2308 7.3414 24.2002 7.1839 24.1415 7.03578L21.9999 2.30784ZM22.742 25.6453L21.2904 28.5485H9.67753L8.29961 26.2501V8.46169H22.742C22.8189 8.07707 22.9808 8.19015 22.9808 7.50015C22.9808 6.81015 22.6899 6.77294 21.9999 6.77294H8.49988L10.4063 2.30784H20.4808L21.7743 5.32271L22.742 7.74206V25.6453Z" fill="#156D9D"/>
</g>
<defs>
<clipPath id="clip0">
<rect width="30" height="30" fill="white"/>
</clipPath>
</defs>
</svg>
