<svg width="6" height="10" viewBox="0 0 6 10" fill="none" xmlns="http://www.w3.org/2000/svg">
<path d="M5.17876 5.01929L5.17882 5.01936C5.26396 5.11043 5.3104 5.23202 5.3104 5.35702C5.3104 5.48185 5.26417 5.60369 5.17865 5.69486M5.17876 5.01929L5.06925 5.59223M5.17876 5.01929L1.47853 1.06572L1.4785 1.06569C1.29787 0.872801 1.00094 0.873196 0.820714 1.06664L0.820682 1.06667C0.646004 1.25429 0.646466 1.55415 0.82157 1.74125L0.821573 1.74126L4.20563 5.35702M5.17876 5.01929L4.41108 5.35702M5.17865 5.69486L5.06925 5.59223M5.17865 5.69486L5.17876 5.69473L5.06925 5.59223M5.17865 5.69486L1.47851 9.6482L1.47848 9.64823C1.38959 9.74315 1.2708 9.79272 1.14998 9.79272C1.02881 9.79272 0.909593 9.74282 0.82059 9.64728L0.820543 9.64723C0.645899 9.45961 0.646361 9.1599 0.821432 8.97278L0.82145 8.97276L4.20563 5.35702M5.06925 5.59223L1.36899 9.5457C1.30843 9.61037 1.22926 9.64272 1.14998 9.64272C1.0705 9.64272 0.991012 9.61016 0.93034 9.54503C0.809418 9.41512 0.809731 9.20484 0.930965 9.07526L4.41108 5.35702M4.20563 5.35702L4.30156 5.45952L4.41108 5.35702M4.20563 5.35702L4.30156 5.25452L4.41108 5.35702" fill="#156D9D" stroke="#156D9D" stroke-width="0.3"/>
</svg>
