<svg width="48" height="48" viewBox="0 0 48 48" fill="none" xmlns="http://www.w3.org/2000/svg">
<g filter="url(#filter0_i)">
<circle cx="24" cy="24" r="24" fill="#F5F6F8"/>
</g>
<path d="M13.373 11C12.0645 11 11 12.0645 11 13.373V23.0234H23.0234V11H13.373ZM18.8574 17.8027H17.8027V18.8574C17.8027 19.2943 17.4486 19.6484 17.0117 19.6484C16.5749 19.6484 16.2207 19.2943 16.2207 18.8574V17.8027H15.166C14.7292 17.8027 14.375 17.4486 14.375 17.0117C14.375 16.5749 14.7292 16.2207 15.166 16.2207H16.2207V15.166C16.2207 14.7292 16.5749 14.375 17.0117 14.375C17.4486 14.375 17.8027 14.7292 17.8027 15.166V16.2207H18.8574C19.2943 16.2207 19.6484 16.5749 19.6484 17.0117C19.6484 17.4486 19.2943 17.8027 18.8574 17.8027Z" fill="#123D6F"/>
<path d="M36.1983 23.0234H36.6289V13.373C36.6289 12.0645 35.5644 11 34.2559 11H24.6055V22.7381C26.1709 21.5603 28.1162 20.8613 30.2217 20.8613C32.492 20.8613 34.5759 21.674 36.1983 23.0234ZM27.9805 17.0117C27.9805 16.5749 28.3346 16.2207 28.7715 16.2207H32.4629C32.8997 16.2207 33.2539 16.5749 33.2539 17.0117C33.2539 17.4486 32.8997 17.8027 32.4629 17.8027H28.7715C28.3346 17.8027 27.9805 17.4486 27.9805 17.0117Z" fill="#123D6F"/>
<path d="M22.7381 24.6055H11V34.2559C11 35.5644 12.0645 36.6289 13.373 36.6289H23.0234V36.1983C21.674 34.5759 20.8613 32.4919 20.8613 30.2217C20.8613 28.1162 21.5603 26.1709 22.7381 24.6055ZM18.8894 31.3762C19.1983 31.6852 19.1983 32.186 18.8894 32.4949C18.735 32.6494 18.5325 32.7266 18.3301 32.7266C18.1276 32.7266 17.9252 32.6494 17.7708 32.4948L17.0117 31.7358L16.2527 32.4949C16.0983 32.6494 15.8958 32.7266 15.6934 32.7266C15.4909 32.7266 15.2885 32.6494 15.1341 32.4948C14.8251 32.1859 14.8251 31.6851 15.1341 31.3762L15.8931 30.6172L15.134 29.8581C14.8251 29.5492 14.8251 29.0484 15.134 28.7395C15.4429 28.4306 15.9437 28.4306 16.2527 28.7395L17.0117 29.4985L17.7708 28.7395C18.0796 28.4306 18.5805 28.4306 18.8894 28.7395C19.1983 29.0484 19.1983 29.5492 18.8894 29.8581L18.1304 30.6172L18.8894 31.3762Z" fill="#123D6F"/>
<path d="M30.2217 22.4434C25.9327 22.4434 22.4434 25.9327 22.4434 30.2217C22.4434 34.5107 25.9327 38 30.2217 38C34.5107 38 38 34.5107 38 30.2217C38 25.9327 34.5107 22.4434 30.2217 22.4434ZM32.0674 32.3311H28.376C27.9391 32.3311 27.585 31.9769 27.585 31.54C27.585 31.1032 27.9391 30.749 28.376 30.749H32.0674C32.5042 30.749 32.8584 31.1032 32.8584 31.54C32.8584 31.9769 32.5042 32.3311 32.0674 32.3311ZM32.0674 29.6943H28.376C27.9391 29.6943 27.585 29.3402 27.585 28.9033C27.585 28.4665 27.9391 28.1123 28.376 28.1123H32.0674C32.5042 28.1123 32.8584 28.4665 32.8584 28.9033C32.8584 29.3402 32.5042 29.6943 32.0674 29.6943Z" fill="#123D6F"/>
<defs>
<filter id="filter0_i" x="0" y="0" width="48" height="50" filterUnits="userSpaceOnUse" color-interpolation-filters="sRGB">
<feFlood flood-opacity="0" result="BackgroundImageFix"/>
<feBlend mode="normal" in="SourceGraphic" in2="BackgroundImageFix" result="shape"/>
<feColorMatrix in="SourceAlpha" type="matrix" values="0 0 0 0 0 0 0 0 0 0 0 0 0 0 0 0 0 0 127 0" result="hardAlpha"/>
<feOffset dy="2"/>
<feGaussianBlur stdDeviation="2.5"/>
<feComposite in2="hardAlpha" operator="arithmetic" k2="-1" k3="1"/>
<feColorMatrix type="matrix" values="0 0 0 0 0 0 0 0 0 0 0 0 0 0 0 0 0 0 0.25 0"/>
<feBlend mode="normal" in2="shape" result="effect1_innerShadow"/>
</filter>
</defs>
</svg>
