<svg width="30" height="30" viewBox="0 0 30 30" fill="none" xmlns="http://www.w3.org/2000/svg">
<g clip-path="url(#clip0)">
<path d="M13.2979 2.60697L6.95406 2.70176C5.80773 2.69267 4.41014 4.08917 4.35455 5.5966C4.35455 5.5966 3.90768 23.0968 4.71912 24.7464C5.37469 26.079 7.21476 27.1594 8.21993 27.1673L20.1588 27.262C20.7845 27.267 23.3046 26.2851 23.8968 24.8984C24.3788 23.7697 24.1397 15.7173 24.0373 12.2679L24.0373 12.2679C24.0139 11.4794 23.9976 10.9315 23.9987 10.7617L23.9988 10.7524C24.0049 9.83141 23.4712 8.24073 23.2261 7.17466L23.194 5.04126L19.9986 5.0892L20.0306 7.2226C20.1007 7.73081 19.5487 8.29958 18.98 7.74818C18.8049 7.61423 17.8425 6.64428 17.8425 6.64428C17.2736 6.09176 17.2736 6.09176 16.5876 5.14038C15.5589 3.87554 15.253 3.57744 14.9902 3.32358C14.43 2.7826 13.8482 2.61134 13.2979 2.60697Z" fill="#F3F4F6"/>
<path d="M17.8425 6.64428C17.8425 6.64428 18.8049 7.61423 18.98 7.74818C19.5487 8.29958 20.1007 7.73081 20.0306 7.2226L19.9986 5.0892L23.194 5.04126L23.2261 7.17466C23.4712 8.24073 24.0049 9.83141 23.9988 10.7524L23.9987 10.7617C23.9976 10.9315 24.0139 11.4794 24.0373 12.2679C24.1397 15.7173 24.3788 23.7697 23.8968 24.8984C23.3046 26.2851 20.7845 27.267 20.1588 27.262L8.21993 27.1673C7.21476 27.1594 5.37469 26.079 4.71912 24.7464C3.90768 23.0968 4.35455 5.5966 4.35455 5.5966C4.41014 4.08917 5.80773 2.69267 6.95406 2.70176L13.2979 2.60697C13.8482 2.61134 14.43 2.7826 14.9902 3.32358C15.253 3.57744 15.5589 3.87554 16.5876 5.14038C17.2736 6.09176 17.2736 6.09176 17.8425 6.64428ZM17.8425 6.64428L18.4112 7.19567" stroke="#156D9D" stroke-width="1.5"/>
<path d="M18.8722 5.38761L24.1955 5.30774L24.1548 2.58906L24.1546 2.58015L24.1547 2.57124C24.1566 2.36977 24.0339 2.20875 23.8787 2.20907C23.8787 2.20907 23.8787 2.20907 23.8787 2.20907L19.1923 2.21972L19.1923 2.21972C19.033 2.22007 18.9008 2.38994 18.8988 2.59668L18.8988 2.59669L18.8722 5.38761Z" stroke="#156D9D"/>
<rect x="7.12402" y="5.41113" width="7" height="2" rx="1" stroke="#156D9D"/>
</g>
<defs>
<clipPath id="clip0">
<rect width="30" height="30" fill="white"/>
</clipPath>
</defs>
</svg>
