<svg width="18" height="17" viewBox="0 0 18 17" fill="none" xmlns="http://www.w3.org/2000/svg">
<g filter="url(#filter0_i)">
<path d="M17.6928 2.09772L16.2844 0.375626C16.0796 0.125227 15.8362 0 15.5545 0C15.2731 0 15.0295 0.125227 14.8249 0.375626L6.54176 10.5037L3.17499 6.38674C2.97011 6.13618 2.72681 6.01111 2.44526 6.01111C2.16367 6.01111 1.92045 6.13618 1.71553 6.38674L0.307333 8.10861C0.102504 8.35907 0 8.65656 0 9.00105C0 9.34536 0.102504 9.64275 0.307333 9.89331L5.81221 16.6244C6.01708 16.875 6.26039 17 6.54194 17C6.82349 17 7.06674 16.875 7.27166 16.6244L17.6927 3.8822C17.8974 3.6318 18 3.33425 18 2.98993C18 2.64561 17.8976 2.34812 17.6928 2.09772Z" fill="#123D6F"/>
</g>
<defs>
<filter id="filter0_i" x="0" y="0" width="18" height="19" filterUnits="userSpaceOnUse" color-interpolation-filters="sRGB">
<feFlood flood-opacity="0" result="BackgroundImageFix"/>
<feBlend mode="normal" in="SourceGraphic" in2="BackgroundImageFix" result="shape"/>
<feColorMatrix in="SourceAlpha" type="matrix" values="0 0 0 0 0 0 0 0 0 0 0 0 0 0 0 0 0 0 127 0" result="hardAlpha"/>
<feOffset dy="2"/>
<feGaussianBlur stdDeviation="1"/>
<feComposite in2="hardAlpha" operator="arithmetic" k2="-1" k3="1"/>
<feColorMatrix type="matrix" values="0 0 0 0 1 0 0 0 0 1 0 0 0 0 1 0 0 0 0.37 0"/>
<feBlend mode="normal" in2="shape" result="effect1_innerShadow"/>
</filter>
</defs>
</svg>
