<svg width="21" height="21" viewBox="0 0 21 21" fill="none" xmlns="http://www.w3.org/2000/svg">
<path d="M10.352 20.7041C8.30456 20.7041 6.30315 20.0969 4.60077 18.9594C2.89839 17.8219 1.57155 16.2052 0.788032 14.3136C0.00451248 12.422 -0.200529 10.3405 0.198906 8.33245C0.598341 6.32435 1.58428 4.4798 3.03204 3.03204C4.47979 1.58429 6.32437 0.59835 8.33247 0.198915C10.3406 -0.20052 12.422 0.00448828 14.3136 0.788008C16.2052 1.57153 17.8219 2.89837 18.9594 4.60075C20.0969 6.30313 20.7041 8.3046 20.7041 10.352C20.6984 13.0958 19.6059 15.7256 17.6657 17.6658C15.7256 19.6059 13.0958 20.6984 10.352 20.7041ZM10.352 4.28656C9.15236 4.28656 7.97972 4.6423 6.98226 5.30878C5.9848 5.97527 5.20735 6.92256 4.74827 8.03088C4.28918 9.1392 4.16907 10.3588 4.40311 11.5354C4.63715 12.7119 5.21482 13.7927 6.06309 14.641C6.91136 15.4892 7.99212 16.0669 9.1687 16.301C10.3453 16.535 11.5649 16.4149 12.6732 15.9558C13.7815 15.4967 14.7288 14.7193 15.3953 13.7218C16.0618 12.7244 16.4175 11.5517 16.4175 10.352C16.4119 8.74511 15.771 7.20562 14.6348 6.06934C13.4985 4.93307 11.9589 4.29221 10.352 4.28656Z" fill="#CCCCCC"/>
</svg>
