<svg width="27" height="28" viewBox="0 0 27 28" fill="none" xmlns="http://www.w3.org/2000/svg">
<g filter="url(#filter0_d)">
<path d="M13.352 20.7041C11.3046 20.7041 9.30314 20.0969 7.60076 18.9594C5.89837 17.8219 4.5715 16.2052 3.78798 14.3136C3.00446 12.422 2.79949 10.3405 3.19892 8.33245C3.59836 6.32435 4.58426 4.4798 6.03202 3.03204C7.47978 1.58429 9.32436 0.59835 11.3325 0.198915C13.3405 -0.20052 15.422 0.00448829 17.3136 0.788008C19.2051 1.57153 20.8219 2.89837 21.9594 4.60075C23.0969 6.30313 23.704 8.3046 23.704 10.352C23.6984 13.0958 22.6059 15.7256 20.6657 17.6658C18.7256 19.6059 16.0958 20.6984 13.352 20.7041ZM13.352 4.28656C12.1524 4.28656 10.9797 4.6423 9.98221 5.30878C8.98475 5.97527 8.20733 6.92256 7.74825 8.03088C7.28917 9.1392 7.16906 10.3588 7.40309 11.5354C7.63713 12.7119 8.2148 13.7927 9.06307 14.641C9.91134 15.4892 10.9921 16.0669 12.1687 16.301C13.3453 16.535 14.5648 16.4149 15.6732 15.9558C16.7815 15.4967 17.7288 14.7193 18.3953 13.7218C19.0618 12.7244 19.4175 11.5517 19.4175 10.352C19.4118 8.74511 18.771 7.20562 17.6347 6.06934C16.4984 4.93307 14.9589 4.29221 13.352 4.28656Z" fill="#ffffff"/>
</g>
<defs>
<filter id="filter0_d" x="0" y="0" width="26.704" height="27.7041" filterUnits="userSpaceOnUse" color-interpolation-filters="sRGB">
<feFlood flood-opacity="0" result="BackgroundImageFix"/>
<feColorMatrix in="SourceAlpha" type="matrix" values="0 0 0 0 0 0 0 0 0 0 0 0 0 0 0 0 0 0 127 0"/>
<feOffset dy="4"/>
<feGaussianBlur stdDeviation="1.5"/>
<feColorMatrix type="matrix" values="0 0 0 0 0 0 0 0 0 0 0 0 0 0 0 0 0 0 0.2 0"/>
<feBlend mode="normal" in2="BackgroundImageFix" result="effect1_dropShadow"/>
<feBlend mode="normal" in="SourceGraphic" in2="effect1_dropShadow" result="shape"/>
</filter>
</defs>
</svg>
