<svg width="20" height="20" viewBox="0 0 20 20" fill="none" xmlns="http://www.w3.org/2000/svg">
<path d="M19.3752 9.68761C19.3752 11.6036 18.807 13.4766 17.7426 15.0697C16.6781 16.6629 15.1651 17.9046 13.3949 18.6378C11.6247 19.371 9.67687 19.5628 7.79766 19.189C5.91845 18.8152 4.19228 17.8926 2.83744 16.5378C1.48261 15.1829 0.559945 13.4568 0.186147 11.5776C-0.187651 9.69835 0.00420295 7.75049 0.737435 5.98031C1.47067 4.21013 2.71233 2.69713 4.30545 1.63264C5.89857 0.568151 7.77158 0 9.68761 0C12.2569 0 14.721 1.02067 16.5378 2.83745C18.3546 4.65422 19.3752 7.1183 19.3752 9.68761Z" fill="#CCCCCC"/>
</svg>
