<svg width="29" height="29" viewBox="0 0 29 29" fill="none" xmlns="http://www.w3.org/2000/svg">
<g filter="url(#filter0_d)">
<path d="M14.3735 21.7469C12.3218 21.7469 10.3162 21.1385 8.61027 19.9987C6.90436 18.8588 5.57482 17.2387 4.78968 15.3432C4.00454 13.4477 3.79905 11.362 4.19931 9.3497C4.59957 7.33745 5.58764 5.48907 7.03839 4.03831C8.48915 2.58756 10.3375 1.59959 12.3498 1.19933C14.362 0.799067 16.4477 1.00449 18.3432 1.78963C20.2387 2.57477 21.8588 3.90438 22.9986 5.61029C24.1385 7.31619 24.747 9.3218 24.747 11.3735C24.747 14.1247 23.6541 16.7632 21.7087 18.7086C19.7633 20.654 17.1247 21.7469 14.3735 21.7469ZM14.3735 5.308C13.1687 5.30801 11.991 5.66554 10.9895 6.33533C9.98809 7.00512 9.20795 7.95702 8.74789 9.07051C8.28782 10.184 8.16854 11.409 8.40515 12.5903C8.64176 13.7716 9.22355 14.8562 10.077 15.7066C10.9304 16.557 12.017 17.135 13.1991 17.3674C14.3813 17.5999 15.6058 17.4763 16.7177 17.0123C17.8295 16.5483 18.7788 15.7648 19.445 14.761C20.1113 13.7572 20.4647 12.5783 20.4604 11.3735C20.4604 10.5751 20.3028 9.78465 19.9967 9.04736C19.6905 8.31006 19.2417 7.64043 18.6762 7.07692C18.1107 6.51341 17.4396 6.06709 16.7012 5.76354C15.9628 5.45998 15.1718 5.30518 14.3735 5.308Z" fill="#2A6F96"/>
</g>
<defs>
<filter id="filter0_d" x="0" y="0" width="28.747" height="28.7469" filterUnits="userSpaceOnUse" color-interpolation-filters="sRGB">
<feFlood flood-opacity="0" result="BackgroundImageFix"/>
<feColorMatrix in="SourceAlpha" type="matrix" values="0 0 0 0 0 0 0 0 0 0 0 0 0 0 0 0 0 0 127 0"/>
<feOffset dy="3"/>
<feGaussianBlur stdDeviation="2"/>
<feColorMatrix type="matrix" values="0 0 0 0 0 0 0 0 0 0 0 0 0 0 0 0 0 0 0.15 0"/>
<feBlend mode="normal" in2="BackgroundImageFix" result="effect1_dropShadow"/>
<feBlend mode="normal" in="SourceGraphic" in2="effect1_dropShadow" result="shape"/>
</filter>
</defs>
</svg>
