<svg width="21" height="20" viewBox="0 0 21 20" fill="none" xmlns="http://www.w3.org/2000/svg">
<path d="M20.303 9.68761C20.303 11.6036 19.7348 13.4766 18.6703 15.0697C17.6058 16.6629 16.0928 17.9046 14.3226 18.6378C12.5524 19.371 10.6046 19.5628 8.72542 19.189C6.84621 18.8152 5.12001 17.8926 3.76517 16.5378C2.41033 15.1829 1.48767 13.4568 1.11387 11.5776C0.740075 9.69835 0.931962 7.75049 1.66519 5.98031C2.39843 4.21013 3.64006 2.69713 5.23318 1.63264C6.8263 0.568151 8.69934 0 10.6154 0C13.1847 0 15.6487 1.02067 17.4655 2.83745C19.2823 4.65422 20.303 7.1183 20.303 9.68761V9.68761Z" fill="#2A6F96"/>
</svg>
