<svg width="21" height="21" viewBox="0 0 21 21" fill="none" xmlns="http://www.w3.org/2000/svg">
<path d="M10.3949 20.7469C8.34137 20.7511 6.33281 20.1458 4.62363 19.0076C2.91444 17.8693 1.58155 16.2495 0.793751 14.3531C0.00595373 12.4567 -0.201298 10.3692 0.198281 8.35495C0.597859 6.3407 1.5863 4.49034 3.03834 3.03829C4.49039 1.58625 6.34068 0.597876 8.35493 0.198297C10.3692 -0.201281 12.4567 0.00590515 14.3531 0.793703C16.2494 1.5815 17.8694 2.91446 19.0076 4.62364C20.1458 6.33283 20.7511 8.34139 20.7469 10.3949C20.7412 13.1387 19.6488 15.7684 17.7086 17.7086C15.7685 19.6487 13.1387 20.7412 10.3949 20.7469ZM10.3949 4.30792C9.19008 4.30368 8.01114 4.65712 7.00734 5.32337C6.00354 5.98963 5.22 6.93875 4.75601 8.05061C4.29202 9.16246 4.16848 10.387 4.40091 11.5691C4.63335 12.7513 5.21133 13.8379 6.06174 14.6913C6.91215 15.5447 7.9967 16.1266 9.17802 16.3632C10.3593 16.5998 11.5843 16.4805 12.6978 16.0205C13.8113 15.5604 14.7632 14.7802 15.433 13.7787C16.1028 12.7773 16.4603 11.5997 16.4603 10.3949C16.4716 9.59015 16.3233 8.79115 16.0238 8.04413C15.7244 7.29712 15.2797 6.6169 14.7156 6.04286C14.1515 5.46881 13.4792 5.01229 12.7376 4.69978C11.9959 4.38727 11.1997 4.22499 10.3949 4.22224V4.30792Z" fill="#ffffff"/>
</svg>
