<svg width="97" height="51" viewBox="0 0 97 51" fill="none" xmlns="http://www.w3.org/2000/svg">
<path fill-rule="evenodd" clip-rule="evenodd" d="M19.5153 15.1227C19.7148 15.0114 19.9575 15.0112 20.1572 15.122L26.3486 18.7313C26.6681 18.9085 26.8259 19.4369 26.6489 19.7569C26.472 20.0769 25.9448 20.2406 25.6253 20.0634L19.8532 16.6801L14.1087 20.0228C13.7896 20.2007 13.3101 20.0006 13.1326 19.6809C12.955 19.3613 13.0602 18.896 13.3794 18.7182L19.5153 15.1227ZM19.8532 30.9247C20.2184 30.926 20.6054 31.2033 20.6041 31.5691V34.0207L25.5226 31.1527C25.8417 30.9748 26.3354 31.2609 26.513 31.5805C26.6905 31.9002 26.5551 32.3043 26.2359 32.4822L20.5666 35.7869C20.079 36.0205 19.6353 36.0205 19.1398 35.7869L13.3578 32.4062C13.0411 32.224 12.9445 31.7136 13.1264 31.3964C13.3083 31.0792 13.8295 30.9325 14.1463 31.1147L19.1023 34.0207V31.5691C19.1036 31.2033 19.488 30.9235 19.8532 30.9247Z" fill="url(#paint0_linear)"/>
<path fill-rule="evenodd" clip-rule="evenodd" d="M29.0502 20.3611C29.2507 20.4867 29.3295 20.6864 29.3295 20.933V30.6566C29.3295 31.0419 29.0402 31.3251 28.6698 31.3543C28.2921 31.3841 27.8174 31.1563 27.8174 30.7709V22.4819L20.6347 26.6843V29.0267C20.6347 29.4121 20.243 29.7348 19.8786 29.7348C19.5143 29.7348 19.1226 29.4121 19.1226 29.0267V26.6648L11.9399 22.4819V30.6942C11.9399 31.0795 11.586 31.3849 11.2216 31.3849C10.8573 31.3849 10.4277 31.1144 10.4277 30.7291V21.1004C10.4277 20.8546 10.5501 20.627 10.7497 20.5011C10.9493 20.3752 11.2939 20.3241 11.4983 20.4411L19.8786 25.3601L28.4076 20.3611C28.6119 20.2426 28.8496 20.2355 29.0502 20.3611Z" fill="url(#paint1_linear)"/>
<path fill-rule="evenodd" clip-rule="evenodd" d="M18.2045 11.7041C19.0919 11.1684 19.7584 10.8562 20.6424 11.3974L30.4324 16.9957C31.0745 17.3887 31.305 18.1217 30.9038 18.7506C30.5024 19.3795 29.6201 19.2632 28.978 18.8701L19.675 13.5447L8.84018 19.7335V31.4848L19.675 37.6635L29.0167 32.329C29.6742 31.9611 30.7532 31.7983 31.1289 32.4421C31.5045 33.0861 31.1672 33.8061 30.5098 34.1741L21.5098 39.3078C20.6915 39.7657 19.3672 40.2146 18.2432 39.5423L7.87278 33.5989C6.97923 33.1322 6.51843 32.7502 6.51843 31.7584V19.9099C6.50056 18.9427 6.75935 18.209 7.60191 17.7626L18.2045 11.7041Z" fill="url(#paint2_linear)"/>
<path d="M67.7499 28.1581V25.5234C68.0851 25.0304 68.8354 24.6606 69.4898 24.6606C70.671 24.6606 71.4532 25.5389 71.4532 26.833C71.4532 28.1272 70.671 28.99 69.4898 28.99C68.8354 28.99 68.0851 28.6357 67.7499 28.1581ZM67.7499 30.5462V29.591C68.3565 30.3305 69.2025 30.7311 70.1283 30.7311C72.0757 30.7311 73.5441 29.3136 73.5441 26.833C73.5441 24.3987 72.0917 22.9196 70.1283 22.9196C69.2185 22.9196 68.3565 23.3047 67.7499 24.0597V20.2695H65.7227V30.5462H67.7499Z" fill="#0A3D76"/>
<path d="M78.7505 30.7309C81.2001 30.7309 82.6691 28.9358 82.6691 26.8001C82.6691 24.6799 81.2001 22.8848 78.7505 22.8848C76.3174 22.8848 74.8477 24.6799 74.8477 26.8001C74.8477 28.9358 76.3174 30.7309 78.7505 30.7309ZM78.7505 28.9822C77.5418 28.9822 76.8679 27.9763 76.8679 26.8001C76.8679 25.6394 77.5418 24.6335 78.7505 24.6335C79.96 24.6335 80.6488 25.6394 80.6488 26.8001C80.6488 27.9763 79.96 28.9822 78.7505 28.9822Z" fill="#0A3D76"/>
<path d="M91.1431 30.7309L88.2347 26.7023L90.9583 22.8848H88.5707L86.9061 25.3052L85.2251 22.8848H82.8376L85.5447 26.7023L82.6699 30.7309H85.0403L86.9061 28.083L88.7556 30.7309H91.1431Z" fill="#0A3D76"/>
<path d="M44.8393 31.3845C47.2573 31.3845 48.6391 30.0029 49.4286 28.5871L47.4219 27.5808C46.9613 28.519 45.9743 29.2353 44.8393 29.2353C42.849 29.2353 41.4015 27.6491 41.4015 25.4999C41.4015 23.3507 42.849 21.7644 44.8393 21.7644C45.9743 21.7644 46.9613 22.4979 47.4219 23.4189L49.4286 22.3955C48.6555 20.9798 47.2573 19.6152 44.8393 19.6152C41.5496 19.6152 39 22.0032 39 25.4999C39 28.9965 41.5496 31.3845 44.8393 31.3845Z" fill="url(#paint3_linear)"/>
<path d="M62.4646 30.7311V20.2695H59.2191L56.5904 26.5904L53.9616 20.2695H50.7324V30.7311H53.0367V23.4064L56.0874 30.7311H57.0934L60.1441 23.4064V30.7311H62.4646Z" fill="url(#paint4_linear)"/>
<defs>
<linearGradient id="paint0_linear" x1="13.0397" y1="24.8893" x2="26.9274" y2="24.9941" gradientUnits="userSpaceOnUse">
<stop stop-color="#1758A0"/>
<stop offset="1" stop-color="#0A3D76"/>
</linearGradient>
<linearGradient id="paint1_linear" x1="10.4277" y1="25.194" x2="29.3267" y2="25.4488" gradientUnits="userSpaceOnUse">
<stop stop-color="#CD1732"/>
<stop offset="0.5" stop-color="#B6142C"/>
<stop offset="1" stop-color="#8B1022"/>
</linearGradient>
<linearGradient id="paint2_linear" x1="6.51758" y1="23.8611" x2="31.285" y2="24.0301" gradientUnits="userSpaceOnUse">
<stop stop-color="#B6142C"/>
<stop offset="1" stop-color="#A62E41"/>
</linearGradient>
<linearGradient id="paint3_linear" x1="39" y1="24.8295" x2="62.7062" y2="25.208" gradientUnits="userSpaceOnUse">
<stop stop-color="#B6142C"/>
<stop offset="1" stop-color="#A62E41"/>
</linearGradient>
<linearGradient id="paint4_linear" x1="39.073" y1="24.8917" x2="62.4584" y2="25.2923" gradientUnits="userSpaceOnUse">
<stop stop-color="#B6142C"/>
<stop offset="1" stop-color="#A62E41"/>
</linearGradient>
</defs>
</svg>
