<svg width="17" height="17" viewBox="0 0 17 17" fill="none" xmlns="http://www.w3.org/2000/svg">
<g clip-path="url(#clip0)">
<path d="M15.4062 2.125H1.59376C0.714907 2.125 0 2.83991 0 3.71876V13.2813C0 14.1601 0.714907 14.875 1.59376 14.875H15.4062C16.2851 14.875 17 14.1601 17 13.2813V3.71876C17 2.83991 16.2851 2.125 15.4062 2.125ZM15.4062 3.1875C15.4784 3.1875 15.5471 3.20247 15.6099 3.22862L8.5 9.39079L1.39011 3.22862C1.45288 3.20251 1.52155 3.1875 1.59373 3.1875H15.4062ZM15.4062 13.8125H1.59376C1.30064 13.8125 1.0625 13.5744 1.0625 13.2812V4.35116L8.15188 10.4953C8.25202 10.5819 8.37601 10.625 8.5 10.625C8.62399 10.625 8.74798 10.582 8.84812 10.4953L15.9375 4.35116V13.2813C15.9375 13.5744 15.6994 13.8125 15.4062 13.8125Z" fill="#123D6F"/>
</g>
<defs>
<clipPath id="clip0">
<rect width="17" height="17" fill="white"/>
</clipPath>
</defs>
</svg>
