<svg width="30" height="30" viewBox="0 0 30 30" fill="none" xmlns="http://www.w3.org/2000/svg">
<path d="M19 2.50016C18.6 2.10016 13.5 2.33349 11 2.50016H10.5L9.5 3.5L10 5L12 5.5V10C11 12.1667 8.9 16.6 8.5 17C8 17.5 6 21.5 6 22C6 22.4 5.66667 24.5 5.5 25.5L7.5 27H21.5L23.5 26.5L24.5 25L24 23.5L18 10V6.5L19.5 5.5L20.5 4.5C20.1667 4.00005 19.4 2.90016 19 2.50016Z" fill="#F3F4F6"/>
<path d="M19.0644 8.85627V4.87618C20.4088 4.87618 21.5025 3.78242 21.5025 2.43809C21.5025 1.09375 20.4088 0 19.0644 0H10.9375C9.59292 0 8.49938 1.09375 8.49938 2.43809C8.49938 3.78242 9.59292 4.87618 10.9375 4.87618V8.85627L4.4359 21.8594C3.08373 24.5635 5.0524 27.74 8.07038 27.74H21.9315C24.9548 27.74 26.9156 24.5587 25.566 21.8594L19.0644 8.85627ZM12.5629 9.23976V4.87618H13.3756V3.25078H10.9375C10.4892 3.25078 10.1248 2.88613 10.1248 2.43809C10.1248 1.99005 10.4892 1.62539 10.9375 1.62539H19.0644C19.5125 1.62539 19.8771 1.99005 19.8771 2.43809C19.8771 2.88613 19.5125 3.25078 19.0644 3.25078H16.6263V4.87618H17.439V9.23976L19.2519 12.8658C17.5027 12.6226 15.7057 13.0194 14.1944 14.0268L11.6549 15.72C10.813 16.2812 9.84583 16.6021 8.85112 16.6632L12.5629 9.23976ZM21.9315 26.1146H8.07038C6.25621 26.1146 5.0797 24.2059 5.88965 22.5862L8.03991 18.2854C9.66466 18.3881 11.241 17.9494 12.5565 17.0723L15.096 15.3792C16.6143 14.3672 18.5032 14.1468 20.2037 14.7695L24.112 22.5862C24.9235 24.2088 23.7421 26.1146 21.9315 26.1146Z" fill="#156D9D"/>
<path d="M11.7502 19.6133C10.4057 19.6133 9.31213 20.707 9.31213 22.0514C9.31213 23.3957 10.4057 24.4895 11.7502 24.4895C13.0946 24.4895 14.1883 23.3957 14.1883 22.0514C14.1883 20.707 13.0946 19.6133 11.7502 19.6133ZM11.7502 22.8641C11.302 22.8641 10.9375 22.4994 10.9375 22.0514C10.9375 21.6033 11.302 21.2387 11.7502 21.2387C12.1983 21.2387 12.5629 21.6033 12.5629 22.0514C12.5629 22.4994 12.1983 22.8641 11.7502 22.8641Z" fill="#156D9D"/>
<path d="M18.2517 16.3623C16.9072 16.3623 15.8137 17.4561 15.8137 18.8004C15.8137 20.1447 16.9072 21.2385 18.2517 21.2385C19.5961 21.2385 20.6898 20.1447 20.6898 18.8004C20.6898 17.4561 19.5961 16.3623 18.2517 16.3623ZM18.2517 19.6131C17.8035 19.6131 17.4391 19.2484 17.4391 18.8004C17.4391 18.3524 17.8035 17.9877 18.2517 17.9877C18.6998 17.9877 19.0644 18.3524 19.0644 18.8004C19.0644 19.2484 18.6998 19.6131 18.2517 19.6131Z" fill="#156D9D"/>
<path d="M15.8137 23.677C15.8137 23.2281 16.1775 22.8643 16.6264 22.8643C17.0752 22.8643 17.439 23.2281 17.439 23.677C17.439 24.1258 17.0752 24.4896 16.6264 24.4896C16.1775 24.4896 15.8137 24.1258 15.8137 23.677Z" fill="#156D9D"/>
</svg>
