<svg width="26" height="26" viewBox="0 0 26 26" fill="none" xmlns="http://www.w3.org/2000/svg">
<mask id="path-1-outside-1" maskUnits="userSpaceOnUse" x="0" y="0" width="26" height="26" fill="black">
<rect fill="white" width="26" height="26"/>
<path d="M24.5125 14.3914C24.7521 13.9611 25 13.5162 25 13C25 12.4839 24.7521 12.0389 24.5125 11.6086C24.3501 11.3172 24.1968 11.042 24.1456 10.7829C24.0914 10.509 24.1284 10.1875 24.1675 9.84705C24.223 9.36527 24.2802 8.86708 24.0893 8.40648C23.8944 7.93652 23.4971 7.62241 23.113 7.31866C22.8483 7.10936 22.5984 6.91169 22.4481 6.68725C22.2955 6.45934 22.2071 6.15044 22.1137 5.82339C21.9798 5.35502 21.8413 4.8707 21.4853 4.51469C21.1292 4.15867 20.6449 4.02025 20.1766 3.88633C20.101 3.86472 18.8392 3.13769 18.9119 3.17722C18.9846 3.21676 19.5687 3.86988 19.5127 4.05583C19.4567 4.24173 19 3.5 18.8392 3.81204C18.6783 4.12409 19.9833 4.56241 19.9833 4.56241C19.9833 4.56241 20.7609 4.78469 20.9882 5.01189C21.2154 5.23909 21.3233 5.61681 21.4377 6.0167C21.542 6.38153 21.6498 6.75878 21.8638 7.07842C22.0756 7.39469 22.3813 7.63642 22.6769 7.87019C23.005 8.12964 23.3149 8.3747 23.4398 8.67583C23.5609 8.96791 23.5163 9.35594 23.469 9.7667C23.4254 10.1457 23.3803 10.5377 23.4558 10.9193C23.5286 11.2872 23.7166 11.6245 23.8983 11.9508C24.1032 12.3189 24.2969 12.6665 24.2969 13C24.2969 13.3335 24.1032 13.6812 23.8982 14.0492C23.7164 14.3754 23.5285 14.7128 23.4557 15.0807C23.3803 15.4623 23.4254 15.8542 23.469 16.2332C23.5162 16.644 23.5609 17.032 23.4398 17.3241C23.3149 17.6252 23.005 17.8703 22.6769 18.1298C22.3812 18.3635 22.0755 18.6053 21.8637 18.9216C21.6498 19.2412 21.5419 19.6184 21.4376 19.9832C21.3234 20.3831 21.2154 20.7608 20.9881 20.9881C20.7608 21.2153 20.3831 21.3233 19.9832 21.4376C19.6184 21.5419 19.2412 21.6497 18.9215 21.8637C18.6053 22.0754 18.3636 22.3811 18.1298 22.6768C17.8703 23.0049 17.6252 23.3148 17.3241 23.4397C17.032 23.5608 16.644 23.5162 16.2332 23.4689C15.8541 23.4253 15.4622 23.3802 15.0806 23.4557C14.7127 23.5285 14.3754 23.7164 14.0492 23.8981C13.6812 24.1032 13.3335 24.2969 13 24.2969C12.6665 24.2969 12.3188 24.1032 11.9508 23.8982C11.6245 23.7165 11.2872 23.5285 10.9193 23.4558C10.5377 23.3803 10.1458 23.4254 9.7667 23.469C9.35594 23.5163 8.968 23.5609 8.67583 23.4398C8.3747 23.3149 8.12964 23.005 7.87019 22.6769C7.63642 22.3812 7.39464 22.0755 7.07833 21.8637C6.75869 21.6498 6.38148 21.5419 6.01666 21.4376C5.61681 21.3233 5.23909 21.2153 5.01184 20.9881C4.78459 20.7609 4.67669 20.3832 4.56231 19.9833C4.45802 19.6185 4.3502 19.2412 4.13617 18.9216C3.92439 18.6053 3.61872 18.3636 3.32308 18.1298C2.99495 17.8704 2.68506 17.6253 2.56019 17.3242C2.43911 17.0321 2.48373 16.6441 2.53098 16.2333C2.57458 15.8543 2.61967 15.4623 2.54416 15.0807C2.47141 14.7128 2.28344 14.3755 2.10175 14.0492C1.89677 13.6811 1.70312 13.3335 1.70312 13C1.70312 12.6665 1.89681 12.3188 2.10184 11.9508C2.28358 11.6246 2.4715 11.2872 2.54425 10.9193C2.61972 10.5377 2.57463 10.1458 2.53103 9.7668C2.48378 9.35598 2.43911 8.96795 2.56023 8.67587C2.68511 8.37475 2.995 8.12969 3.32313 7.87023C3.61881 7.63647 3.92448 7.39469 4.13627 7.07842C4.3502 6.75878 4.45806 6.38158 4.56236 6.0168C4.67664 5.61691 4.78464 5.23919 5.01194 5.01194C5.23919 4.78469 5.61686 4.67673 6.0168 4.56241C6.38158 4.45811 6.75878 4.3503 7.07847 4.13631C7.39469 3.92458 7.63642 3.61886 7.87023 3.32322C8.12969 2.99509 8.37475 2.68516 8.67592 2.56033C8.968 2.43925 9.35608 2.48387 9.7668 2.53108C10.1458 2.57472 10.5377 2.61977 10.9194 2.5443C11.2873 2.4715 11.6246 2.28358 11.9508 2.10189C12.3188 1.89677 12.6665 1.70312 13 1.70312C13.3335 1.70312 13.6812 1.89677 14.0492 2.1018C14.3755 2.28353 14.7128 2.47145 15.0807 2.5442C15.4623 2.61963 15.8542 2.57458 16.2333 2.53098C16.6441 2.48373 17.032 2.43906 17.3242 2.56023C17.6253 2.68511 17.3559 2.51808 17.6154 2.84615C17.6846 2.93367 17.188 2.67772 18.344 3.58886C19.5 4.5 18.6903 3.75752 18.8392 3.63292C18.9881 3.50833 19.0078 3.28661 18.8832 3.13769C18.816 3.05739 18.7506 2.97461 18.6812 2.88695C18.3775 2.50281 18.0634 2.10559 17.5935 1.91069C17.1329 1.71972 16.6347 1.777 16.1529 1.83245C15.8125 1.87159 15.491 1.90863 15.217 1.85444C14.958 1.8032 14.6828 1.64987 14.3914 1.48755C13.9611 1.24787 13.5162 1 13 1C12.4838 1 12.0389 1.24788 11.6086 1.48759C11.3172 1.64992 11.0419 1.80325 10.7829 1.85448C10.5091 1.90863 10.1875 1.87169 9.84714 1.8325C9.36531 1.777 8.86712 1.71972 8.40653 1.91073C7.93661 2.10559 7.62241 2.50286 7.31866 2.88705C7.10941 3.1517 6.91169 3.40169 6.6873 3.55197C6.45939 3.70455 6.15048 3.79286 5.82348 3.88633C5.35511 4.0202 4.87075 4.15867 4.51473 4.51473C4.15863 4.87075 4.0202 5.35511 3.88633 5.82348C3.79286 6.15048 3.70455 6.45934 3.55197 6.68725C3.40173 6.91169 3.1517 7.10936 2.887 7.31866C2.50286 7.62241 2.10559 7.93652 1.91073 8.40653C1.71977 8.86712 1.77705 9.36536 1.8325 9.84714C1.87164 10.1875 1.90863 10.5091 1.85448 10.7829C1.8032 11.0419 1.64992 11.3172 1.48755 11.6086C1.24787 12.0389 1 12.4838 1 13C1 13.5161 1.24787 13.9611 1.48755 14.3914C1.64987 14.6828 1.8032 14.958 1.85444 15.2171C1.90863 15.491 1.87164 15.8125 1.83245 16.153C1.77705 16.6347 1.71977 17.1329 1.91073 17.5935C2.10559 18.0635 2.50286 18.3776 2.887 18.6813C3.15166 18.8906 3.40164 19.0883 3.55192 19.3127C3.70455 19.5407 3.79286 19.8496 3.88633 20.1766C4.0202 20.645 4.15867 21.1293 4.51469 21.4853C4.8707 21.8413 5.35506 21.9798 5.82344 22.1137C6.15044 22.2072 6.4593 22.2955 6.68725 22.448C6.91169 22.5983 7.10936 22.8483 7.31866 23.113C7.62241 23.4971 7.93656 23.8944 8.40648 24.0893C8.86712 24.2803 9.36527 24.223 9.84709 24.1675C10.1875 24.1284 10.5089 24.0913 10.7829 24.1455C11.0419 24.1967 11.3172 24.3501 11.6086 24.5124C12.0389 24.7521 12.4838 25 13 25C13.5162 25 13.9611 24.7521 14.3914 24.5124C14.6828 24.3501 14.9581 24.1967 15.2171 24.1455C15.4909 24.0914 15.8125 24.1283 16.1529 24.1675C16.6346 24.223 17.1328 24.2802 17.5935 24.0893C18.0634 23.8944 18.3776 23.4971 18.6813 23.113C18.8906 22.8483 19.0883 22.5983 19.3127 22.448C19.5406 22.2955 19.8495 22.2071 20.1765 22.1137C20.6449 21.9798 21.1293 21.8413 21.4853 21.4853C21.8414 21.1293 21.9798 20.6449 22.1137 20.1765C22.2071 19.8495 22.2955 19.5407 22.448 19.3127C22.5983 19.0883 22.8483 18.8906 23.113 18.6813C23.4971 18.3776 23.8944 18.0635 24.0893 17.5935C24.2802 17.1329 24.223 16.6346 24.1675 16.1529C24.1284 15.8125 24.0914 15.4909 24.1455 15.2171C24.1967 14.958 24.3501 14.6828 24.5125 14.3914Z"/>
</mask>
<path d="M24.5125 14.3914C24.7521 13.9611 25 13.5162 25 13C25 12.4839 24.7521 12.0389 24.5125 11.6086C24.3501 11.3172 24.1968 11.042 24.1456 10.7829C24.0914 10.509 24.1284 10.1875 24.1675 9.84705C24.223 9.36527 24.2802 8.86708 24.0893 8.40648C23.8944 7.93652 23.4971 7.62241 23.113 7.31866C22.8483 7.10936 22.5984 6.91169 22.4481 6.68725C22.2955 6.45934 22.2071 6.15044 22.1137 5.82339C21.9798 5.35502 21.8413 4.8707 21.4853 4.51469C21.1292 4.15867 20.6449 4.02025 20.1766 3.88633C20.101 3.86472 18.8392 3.13769 18.9119 3.17722C18.9846 3.21676 19.5687 3.86988 19.5127 4.05583C19.4567 4.24173 19 3.5 18.8392 3.81204C18.6783 4.12409 19.9833 4.56241 19.9833 4.56241C19.9833 4.56241 20.7609 4.78469 20.9882 5.01189C21.2154 5.23909 21.3233 5.61681 21.4377 6.0167C21.542 6.38153 21.6498 6.75878 21.8638 7.07842C22.0756 7.39469 22.3813 7.63642 22.6769 7.87019C23.005 8.12964 23.3149 8.3747 23.4398 8.67583C23.5609 8.96791 23.5163 9.35594 23.469 9.7667C23.4254 10.1457 23.3803 10.5377 23.4558 10.9193C23.5286 11.2872 23.7166 11.6245 23.8983 11.9508C24.1032 12.3189 24.2969 12.6665 24.2969 13C24.2969 13.3335 24.1032 13.6812 23.8982 14.0492C23.7164 14.3754 23.5285 14.7128 23.4557 15.0807C23.3803 15.4623 23.4254 15.8542 23.469 16.2332C23.5162 16.644 23.5609 17.032 23.4398 17.3241C23.3149 17.6252 23.005 17.8703 22.6769 18.1298C22.3812 18.3635 22.0755 18.6053 21.8637 18.9216C21.6498 19.2412 21.5419 19.6184 21.4376 19.9832C21.3234 20.3831 21.2154 20.7608 20.9881 20.9881C20.7608 21.2153 20.3831 21.3233 19.9832 21.4376C19.6184 21.5419 19.2412 21.6497 18.9215 21.8637C18.6053 22.0754 18.3636 22.3811 18.1298 22.6768C17.8703 23.0049 17.6252 23.3148 17.3241 23.4397C17.032 23.5608 16.644 23.5162 16.2332 23.4689C15.8541 23.4253 15.4622 23.3802 15.0806 23.4557C14.7127 23.5285 14.3754 23.7164 14.0492 23.8981C13.6812 24.1032 13.3335 24.2969 13 24.2969C12.6665 24.2969 12.3188 24.1032 11.9508 23.8982C11.6245 23.7165 11.2872 23.5285 10.9193 23.4558C10.5377 23.3803 10.1458 23.4254 9.7667 23.469C9.35594 23.5163 8.968 23.5609 8.67583 23.4398C8.3747 23.3149 8.12964 23.005 7.87019 22.6769C7.63642 22.3812 7.39464 22.0755 7.07833 21.8637C6.75869 21.6498 6.38148 21.5419 6.01666 21.4376C5.61681 21.3233 5.23909 21.2153 5.01184 20.9881C4.78459 20.7609 4.67669 20.3832 4.56231 19.9833C4.45802 19.6185 4.3502 19.2412 4.13617 18.9216C3.92439 18.6053 3.61872 18.3636 3.32308 18.1298C2.99495 17.8704 2.68506 17.6253 2.56019 17.3242C2.43911 17.0321 2.48373 16.6441 2.53098 16.2333C2.57458 15.8543 2.61967 15.4623 2.54416 15.0807C2.47141 14.7128 2.28344 14.3755 2.10175 14.0492C1.89677 13.6811 1.70312 13.3335 1.70312 13C1.70312 12.6665 1.89681 12.3188 2.10184 11.9508C2.28358 11.6246 2.4715 11.2872 2.54425 10.9193C2.61972 10.5377 2.57463 10.1458 2.53103 9.7668C2.48378 9.35598 2.43911 8.96795 2.56023 8.67587C2.68511 8.37475 2.995 8.12969 3.32313 7.87023C3.61881 7.63647 3.92448 7.39469 4.13627 7.07842C4.3502 6.75878 4.45806 6.38158 4.56236 6.0168C4.67664 5.61691 4.78464 5.23919 5.01194 5.01194C5.23919 4.78469 5.61686 4.67673 6.0168 4.56241C6.38158 4.45811 6.75878 4.3503 7.07847 4.13631C7.39469 3.92458 7.63642 3.61886 7.87023 3.32322C8.12969 2.99509 8.37475 2.68516 8.67592 2.56033C8.968 2.43925 9.35608 2.48387 9.7668 2.53108C10.1458 2.57472 10.5377 2.61977 10.9194 2.5443C11.2873 2.4715 11.6246 2.28358 11.9508 2.10189C12.3188 1.89677 12.6665 1.70312 13 1.70312C13.3335 1.70312 13.6812 1.89677 14.0492 2.1018C14.3755 2.28353 14.7128 2.47145 15.0807 2.5442C15.4623 2.61963 15.8542 2.57458 16.2333 2.53098C16.6441 2.48373 17.032 2.43906 17.3242 2.56023C17.6253 2.68511 17.3559 2.51808 17.6154 2.84615C17.6846 2.93367 17.188 2.67772 18.344 3.58886C19.5 4.5 18.6903 3.75752 18.8392 3.63292C18.9881 3.50833 19.0078 3.28661 18.8832 3.13769C18.816 3.05739 18.7506 2.97461 18.6812 2.88695C18.3775 2.50281 18.0634 2.10559 17.5935 1.91069C17.1329 1.71972 16.6347 1.777 16.1529 1.83245C15.8125 1.87159 15.491 1.90863 15.217 1.85444C14.958 1.8032 14.6828 1.64987 14.3914 1.48755C13.9611 1.24787 13.5162 1 13 1C12.4838 1 12.0389 1.24788 11.6086 1.48759C11.3172 1.64992 11.0419 1.80325 10.7829 1.85448C10.5091 1.90863 10.1875 1.87169 9.84714 1.8325C9.36531 1.777 8.86712 1.71972 8.40653 1.91073C7.93661 2.10559 7.62241 2.50286 7.31866 2.88705C7.10941 3.1517 6.91169 3.40169 6.6873 3.55197C6.45939 3.70455 6.15048 3.79286 5.82348 3.88633C5.35511 4.0202 4.87075 4.15867 4.51473 4.51473C4.15863 4.87075 4.0202 5.35511 3.88633 5.82348C3.79286 6.15048 3.70455 6.45934 3.55197 6.68725C3.40173 6.91169 3.1517 7.10936 2.887 7.31866C2.50286 7.62241 2.10559 7.93652 1.91073 8.40653C1.71977 8.86712 1.77705 9.36536 1.8325 9.84714C1.87164 10.1875 1.90863 10.5091 1.85448 10.7829C1.8032 11.0419 1.64992 11.3172 1.48755 11.6086C1.24787 12.0389 1 12.4838 1 13C1 13.5161 1.24787 13.9611 1.48755 14.3914C1.64987 14.6828 1.8032 14.958 1.85444 15.2171C1.90863 15.491 1.87164 15.8125 1.83245 16.153C1.77705 16.6347 1.71977 17.1329 1.91073 17.5935C2.10559 18.0635 2.50286 18.3776 2.887 18.6813C3.15166 18.8906 3.40164 19.0883 3.55192 19.3127C3.70455 19.5407 3.79286 19.8496 3.88633 20.1766C4.0202 20.645 4.15867 21.1293 4.51469 21.4853C4.8707 21.8413 5.35506 21.9798 5.82344 22.1137C6.15044 22.2072 6.4593 22.2955 6.68725 22.448C6.91169 22.5983 7.10936 22.8483 7.31866 23.113C7.62241 23.4971 7.93656 23.8944 8.40648 24.0893C8.86712 24.2803 9.36527 24.223 9.84709 24.1675C10.1875 24.1284 10.5089 24.0913 10.7829 24.1455C11.0419 24.1967 11.3172 24.3501 11.6086 24.5124C12.0389 24.7521 12.4838 25 13 25C13.5162 25 13.9611 24.7521 14.3914 24.5124C14.6828 24.3501 14.9581 24.1967 15.2171 24.1455C15.4909 24.0914 15.8125 24.1283 16.1529 24.1675C16.6346 24.223 17.1328 24.2802 17.5935 24.0893C18.0634 23.8944 18.3776 23.4971 18.6813 23.113C18.8906 22.8483 19.0883 22.5983 19.3127 22.448C19.5406 22.2955 19.8495 22.2071 20.1765 22.1137C20.6449 21.9798 21.1293 21.8413 21.4853 21.4853C21.8414 21.1293 21.9798 20.6449 22.1137 20.1765C22.2071 19.8495 22.2955 19.5407 22.448 19.3127C22.5983 19.0883 22.8483 18.8906 23.113 18.6813C23.4971 18.3776 23.8944 18.0635 24.0893 17.5935C24.2802 17.1329 24.223 16.6346 24.1675 16.1529C24.1284 15.8125 24.0914 15.4909 24.1455 15.2171C24.1967 14.958 24.3501 14.6828 24.5125 14.3914Z" fill="#156D9D"/>
<path d="M24.5125 14.3914C24.7521 13.9611 25 13.5162 25 13C25 12.4839 24.7521 12.0389 24.5125 11.6086C24.3501 11.3172 24.1968 11.042 24.1456 10.7829C24.0914 10.509 24.1284 10.1875 24.1675 9.84705C24.223 9.36527 24.2802 8.86708 24.0893 8.40648C23.8944 7.93652 23.4971 7.62241 23.113 7.31866C22.8483 7.10936 22.5984 6.91169 22.4481 6.68725C22.2955 6.45934 22.2071 6.15044 22.1137 5.82339C21.9798 5.35502 21.8413 4.8707 21.4853 4.51469C21.1292 4.15867 20.6449 4.02025 20.1766 3.88633C20.101 3.86472 18.8392 3.13769 18.9119 3.17722C18.9846 3.21676 19.5687 3.86988 19.5127 4.05583C19.4567 4.24173 19 3.5 18.8392 3.81204C18.6783 4.12409 19.9833 4.56241 19.9833 4.56241C19.9833 4.56241 20.7609 4.78469 20.9882 5.01189C21.2154 5.23909 21.3233 5.61681 21.4377 6.0167C21.542 6.38153 21.6498 6.75878 21.8638 7.07842C22.0756 7.39469 22.3813 7.63642 22.6769 7.87019C23.005 8.12964 23.3149 8.3747 23.4398 8.67583C23.5609 8.96791 23.5163 9.35594 23.469 9.7667C23.4254 10.1457 23.3803 10.5377 23.4558 10.9193C23.5286 11.2872 23.7166 11.6245 23.8983 11.9508C24.1032 12.3189 24.2969 12.6665 24.2969 13C24.2969 13.3335 24.1032 13.6812 23.8982 14.0492C23.7164 14.3754 23.5285 14.7128 23.4557 15.0807C23.3803 15.4623 23.4254 15.8542 23.469 16.2332C23.5162 16.644 23.5609 17.032 23.4398 17.3241C23.3149 17.6252 23.005 17.8703 22.6769 18.1298C22.3812 18.3635 22.0755 18.6053 21.8637 18.9216C21.6498 19.2412 21.5419 19.6184 21.4376 19.9832C21.3234 20.3831 21.2154 20.7608 20.9881 20.9881C20.7608 21.2153 20.3831 21.3233 19.9832 21.4376C19.6184 21.5419 19.2412 21.6497 18.9215 21.8637C18.6053 22.0754 18.3636 22.3811 18.1298 22.6768C17.8703 23.0049 17.6252 23.3148 17.3241 23.4397C17.032 23.5608 16.644 23.5162 16.2332 23.4689C15.8541 23.4253 15.4622 23.3802 15.0806 23.4557C14.7127 23.5285 14.3754 23.7164 14.0492 23.8981C13.6812 24.1032 13.3335 24.2969 13 24.2969C12.6665 24.2969 12.3188 24.1032 11.9508 23.8982C11.6245 23.7165 11.2872 23.5285 10.9193 23.4558C10.5377 23.3803 10.1458 23.4254 9.7667 23.469C9.35594 23.5163 8.968 23.5609 8.67583 23.4398C8.3747 23.3149 8.12964 23.005 7.87019 22.6769C7.63642 22.3812 7.39464 22.0755 7.07833 21.8637C6.75869 21.6498 6.38148 21.5419 6.01666 21.4376C5.61681 21.3233 5.23909 21.2153 5.01184 20.9881C4.78459 20.7609 4.67669 20.3832 4.56231 19.9833C4.45802 19.6185 4.3502 19.2412 4.13617 18.9216C3.92439 18.6053 3.61872 18.3636 3.32308 18.1298C2.99495 17.8704 2.68506 17.6253 2.56019 17.3242C2.43911 17.0321 2.48373 16.6441 2.53098 16.2333C2.57458 15.8543 2.61967 15.4623 2.54416 15.0807C2.47141 14.7128 2.28344 14.3755 2.10175 14.0492C1.89677 13.6811 1.70312 13.3335 1.70312 13C1.70312 12.6665 1.89681 12.3188 2.10184 11.9508C2.28358 11.6246 2.4715 11.2872 2.54425 10.9193C2.61972 10.5377 2.57463 10.1458 2.53103 9.7668C2.48378 9.35598 2.43911 8.96795 2.56023 8.67587C2.68511 8.37475 2.995 8.12969 3.32313 7.87023C3.61881 7.63647 3.92448 7.39469 4.13627 7.07842C4.3502 6.75878 4.45806 6.38158 4.56236 6.0168C4.67664 5.61691 4.78464 5.23919 5.01194 5.01194C5.23919 4.78469 5.61686 4.67673 6.0168 4.56241C6.38158 4.45811 6.75878 4.3503 7.07847 4.13631C7.39469 3.92458 7.63642 3.61886 7.87023 3.32322C8.12969 2.99509 8.37475 2.68516 8.67592 2.56033C8.968 2.43925 9.35608 2.48387 9.7668 2.53108C10.1458 2.57472 10.5377 2.61977 10.9194 2.5443C11.2873 2.4715 11.6246 2.28358 11.9508 2.10189C12.3188 1.89677 12.6665 1.70312 13 1.70312C13.3335 1.70312 13.6812 1.89677 14.0492 2.1018C14.3755 2.28353 14.7128 2.47145 15.0807 2.5442C15.4623 2.61963 15.8542 2.57458 16.2333 2.53098C16.6441 2.48373 17.032 2.43906 17.3242 2.56023C17.6253 2.68511 17.3559 2.51808 17.6154 2.84615C17.6846 2.93367 17.188 2.67772 18.344 3.58886C19.5 4.5 18.6903 3.75752 18.8392 3.63292C18.9881 3.50833 19.0078 3.28661 18.8832 3.13769C18.816 3.05739 18.7506 2.97461 18.6812 2.88695C18.3775 2.50281 18.0634 2.10559 17.5935 1.91069C17.1329 1.71972 16.6347 1.777 16.1529 1.83245C15.8125 1.87159 15.491 1.90863 15.217 1.85444C14.958 1.8032 14.6828 1.64987 14.3914 1.48755C13.9611 1.24787 13.5162 1 13 1C12.4838 1 12.0389 1.24788 11.6086 1.48759C11.3172 1.64992 11.0419 1.80325 10.7829 1.85448C10.5091 1.90863 10.1875 1.87169 9.84714 1.8325C9.36531 1.777 8.86712 1.71972 8.40653 1.91073C7.93661 2.10559 7.62241 2.50286 7.31866 2.88705C7.10941 3.1517 6.91169 3.40169 6.6873 3.55197C6.45939 3.70455 6.15048 3.79286 5.82348 3.88633C5.35511 4.0202 4.87075 4.15867 4.51473 4.51473C4.15863 4.87075 4.0202 5.35511 3.88633 5.82348C3.79286 6.15048 3.70455 6.45934 3.55197 6.68725C3.40173 6.91169 3.1517 7.10936 2.887 7.31866C2.50286 7.62241 2.10559 7.93652 1.91073 8.40653C1.71977 8.86712 1.77705 9.36536 1.8325 9.84714C1.87164 10.1875 1.90863 10.5091 1.85448 10.7829C1.8032 11.0419 1.64992 11.3172 1.48755 11.6086C1.24787 12.0389 1 12.4838 1 13C1 13.5161 1.24787 13.9611 1.48755 14.3914C1.64987 14.6828 1.8032 14.958 1.85444 15.2171C1.90863 15.491 1.87164 15.8125 1.83245 16.153C1.77705 16.6347 1.71977 17.1329 1.91073 17.5935C2.10559 18.0635 2.50286 18.3776 2.887 18.6813C3.15166 18.8906 3.40164 19.0883 3.55192 19.3127C3.70455 19.5407 3.79286 19.8496 3.88633 20.1766C4.0202 20.645 4.15867 21.1293 4.51469 21.4853C4.8707 21.8413 5.35506 21.9798 5.82344 22.1137C6.15044 22.2072 6.4593 22.2955 6.68725 22.448C6.91169 22.5983 7.10936 22.8483 7.31866 23.113C7.62241 23.4971 7.93656 23.8944 8.40648 24.0893C8.86712 24.2803 9.36527 24.223 9.84709 24.1675C10.1875 24.1284 10.5089 24.0913 10.7829 24.1455C11.0419 24.1967 11.3172 24.3501 11.6086 24.5124C12.0389 24.7521 12.4838 25 13 25C13.5162 25 13.9611 24.7521 14.3914 24.5124C14.6828 24.3501 14.9581 24.1967 15.2171 24.1455C15.4909 24.0914 15.8125 24.1283 16.1529 24.1675C16.6346 24.223 17.1328 24.2802 17.5935 24.0893C18.0634 23.8944 18.3776 23.4971 18.6813 23.113C18.8906 22.8483 19.0883 22.5983 19.3127 22.448C19.5406 22.2955 19.8495 22.2071 20.1765 22.1137C20.6449 21.9798 21.1293 21.8413 21.4853 21.4853C21.8414 21.1293 21.9798 20.6449 22.1137 20.1765C22.2071 19.8495 22.2955 19.5407 22.448 19.3127C22.5983 19.0883 22.8483 18.8906 23.113 18.6813C23.4971 18.3776 23.8944 18.0635 24.0893 17.5935C24.2802 17.1329 24.223 16.6346 24.1675 16.1529C24.1284 15.8125 24.0914 15.4909 24.1455 15.2171C24.1967 14.958 24.3501 14.6828 24.5125 14.3914Z" stroke="#156D9D" mask="url(#path-1-outside-1)"/>
<circle cx="13" cy="13" r="6" stroke="#156D9D" stroke-width="2"/>
</svg>
