<svg width="141" height="38" viewBox="0 0 141 38" fill="none" xmlns="http://www.w3.org/2000/svg">
<g filter="url(#filter0_ii)">
<path fill-rule="evenodd" clip-rule="evenodd" d="M23.6754 8.34038L16.5059 3.31787C15.5046 2.6164 13.1481 3.3205 12.5608 4.16014C12.5608 4.16014 2.1174 18.4938 1.8825 20.3616C1.69272 21.8706 2.68795 23.8859 3.56598 24.501L13.9947 31.8068C14.5413 32.1897 17.318 32.8957 18.6344 32.097C19.7058 31.4469 24.1207 24.5822 26.0119 21.6417C26.4442 20.9695 26.7446 20.5024 26.8431 20.3614L26.8485 20.3537C27.3828 19.5888 28.8991 17.4179 28.2248 16.9002L28.8972 15.939L26.1051 13.9831L25.4285 14.9504C25.1516 14.7145 24.7511 14.3515 24.5956 13.9106C24.5188 13.6929 24.4778 13.3356 24.4778 13.3356C24.4229 13.0672 24.4905 12.4054 24.5622 11.7052C24.644 10.9051 24.731 10.0549 24.6459 9.68392C24.4648 8.89338 24.1561 8.67712 23.6754 8.34038ZM15.1017 6.73448C14.8124 6.53178 14.6193 6.25024 14.541 5.95874C14.4626 5.6672 14.4991 5.36568 14.6689 5.12305C15.008 4.63815 15.7518 4.57346 16.33 4.97854L21.9505 8.9159C22.2398 9.1186 22.4329 9.40014 22.5112 9.69165C22.5895 9.98316 22.553 10.2847 22.3833 10.5273C22.0441 11.0122 21.3004 11.0769 20.7222 10.6718L15.1017 6.73448Z" fill="#0E4D70"/>
</g>
<path fill-rule="evenodd" clip-rule="evenodd" d="M25.7225 20.743C25.6299 20.9922 25.3496 21.1151 25.1038 21.0143L22.2012 19.8245L12.291 12.882L10.485 10.7853C10.311 10.5832 10.3392 10.277 10.5473 10.1103C10.7449 9.95193 11.0324 9.97855 11.1978 10.1705L12.9385 12.1914L22.6399 18.9877L25.46 20.1437C25.6947 20.2399 25.8109 20.5051 25.7225 20.743Z" fill="white" fill-opacity="0.3"/>
<path fill-rule="evenodd" clip-rule="evenodd" d="M19.6715 29.3934C19.5789 29.6426 19.2986 29.7655 19.0527 29.6647L16.1502 28.4749L6.23998 21.5324L4.43399 19.4356C4.25995 19.2336 4.28819 18.9274 4.49624 18.7607C4.6939 18.6023 4.98141 18.6289 5.14677 18.8209L6.88745 20.8418L16.5888 27.638L19.409 28.7941C19.6437 28.8903 19.7599 29.1555 19.6715 29.3934Z" fill="white" fill-opacity="0.3"/>
<path d="M25.6028 13.8222L29.3454 16.3904L30.7086 14.4515C30.9167 14.1555 30.8893 13.781 30.6474 13.615L27.7809 11.648C27.539 11.482 27.1741 11.5873 26.966 11.8833L25.6028 13.8222Z" fill="#E44444"/>
<path d="M26.7915 11.9679C26.9781 11.6869 27.3126 11.5841 27.5386 11.7383L27.9737 12.0352L27.4027 12.895C27.2756 13.0865 27.2974 13.327 27.4514 13.4321L29.8241 15.0511L29.0651 16.1941L25.5693 13.8087L26.7915 11.9679Z" fill="#F56666"/>
<g filter="url(#filter1_dddi)">
<path d="M39.6767 32.1172H35.8367V16.9356H42.6663C43.972 16.9356 45.0029 17.1138 45.7589 17.47C46.5321 17.8263 47.0905 18.3931 47.4341 19.1704C47.7949 19.9477 47.9753 20.9922 47.9753 22.3038C47.9753 24.2147 47.5801 25.6074 46.7898 26.4818C46.0166 27.3401 44.771 27.7692 43.0528 27.7692H39.6767V32.1172ZM42.5632 25.073C43.0786 25.073 43.4394 25.0001 43.6456 24.8543C43.8518 24.7086 43.9549 24.4414 43.9549 24.0528V20.9436C43.9549 20.5549 43.8518 20.2877 43.6456 20.142C43.4394 19.9962 43.0786 19.9234 42.5632 19.9234H39.6767V25.073H42.5632Z" fill="#19628B"/>
<path d="M60.6119 29.2023H55.174L54.3235 32.1172H50.4834L54.942 16.9356H60.8438L65.3024 32.1172H61.4623L60.6119 29.2023ZM59.8129 26.5061L58.0089 20.3606H57.7769L55.9729 26.5061H59.8129Z" fill="#19628B"/>
<path d="M69.5993 28.7651C71.2315 29.2185 72.9496 29.4453 74.7537 29.4453C75.6299 29.4453 76.4632 29.3967 77.2536 29.2995V26.3604L74.8825 26.166C73.4221 26.0527 72.2881 25.8422 71.4806 25.5345C70.6903 25.2268 70.1233 24.7734 69.7797 24.1742C69.436 23.5589 69.2642 22.7168 69.2642 21.648C69.2642 20.3849 69.4446 19.389 69.8054 18.6603C70.1834 17.9316 70.7762 17.4053 71.5837 17.0814C72.3912 16.7413 73.4994 16.5713 74.9083 16.5713C76.8154 16.5713 78.6968 16.7656 80.5524 17.1543L80.0627 20.0448C79.238 19.8829 78.4906 19.7776 77.8205 19.7291C77.1505 19.6643 76.4117 19.6319 75.6041 19.6319C74.7279 19.6319 73.9977 19.6724 73.4135 19.7533V22.7168L75.7845 22.8868C77.1762 23.0002 78.2758 23.2269 79.0834 23.567C79.9081 23.907 80.5008 24.409 80.8616 25.073C81.2225 25.7207 81.4029 26.579 81.4029 27.6478C81.4029 28.8137 81.1881 29.7529 80.7586 30.4655C80.329 31.1618 79.6504 31.6719 78.7226 31.9958C77.7948 32.3196 76.5577 32.4816 75.0114 32.4816C72.8294 32.4816 70.8449 32.2387 69.058 31.7529L69.5993 28.7651Z" fill="#19628B"/>
<path d="M90.4456 29.1295H97.0175V32.1172H86.6056V16.9356H97.0433L96.5794 19.9234H90.4456V23.1783H96.0897V25.8746H90.4456V29.1295Z" fill="#19628B"/>
<path d="M102.626 16.9356H106.388L111.311 24.3685C111.551 24.741 111.714 25.0487 111.8 25.2916C111.886 25.5183 111.938 25.7531 111.955 25.996H112.11V16.9356H115.95V32.1172H112.187L107.29 24.6843C107.033 24.3119 106.861 24.0123 106.775 23.7856C106.689 23.5589 106.637 23.316 106.62 23.0569H106.466V32.1172H102.626V16.9356Z" fill="#19628B"/>
<path d="M130.871 29.2023H125.433L124.583 32.1172H120.742L125.201 16.9356H131.103L135.561 32.1172H131.721L130.871 29.2023ZM130.072 26.5061L128.268 20.3606H128.036L126.232 26.5061H130.072Z" fill="#19628B"/>
</g>
<defs>
<filter id="filter0_ii" x="1.85889" y="0.03125" width="28.0382" height="33.4306" filterUnits="userSpaceOnUse" color-interpolation-filters="sRGB">
<feFlood flood-opacity="0" result="BackgroundImageFix"/>
<feBlend mode="normal" in="SourceGraphic" in2="BackgroundImageFix" result="shape"/>
<feColorMatrix in="SourceAlpha" type="matrix" values="0 0 0 0 0 0 0 0 0 0 0 0 0 0 0 0 0 0 127 0" result="hardAlpha"/>
<feOffset dy="-3"/>
<feGaussianBlur stdDeviation="1.5"/>
<feComposite in2="hardAlpha" operator="arithmetic" k2="-1" k3="1"/>
<feColorMatrix type="matrix" values="0 0 0 0 0.0625 0 0 0 0 0.0625 0 0 0 0 0.0625 0 0 0 0.45 0"/>
<feBlend mode="normal" in2="shape" result="effect1_innerShadow"/>
<feColorMatrix in="SourceAlpha" type="matrix" values="0 0 0 0 0 0 0 0 0 0 0 0 0 0 0 0 0 0 127 0" result="hardAlpha"/>
<feOffset dx="1" dy="1"/>
<feGaussianBlur stdDeviation="1.5"/>
<feComposite in2="hardAlpha" operator="arithmetic" k2="-1" k3="1"/>
<feColorMatrix type="matrix" values="0 0 0 0 0.624236 0 0 0 0 0.764926 0 0 0 0 0.841667 0 0 0 1 0"/>
<feBlend mode="normal" in2="effect1_innerShadow" result="effect2_innerShadow"/>
</filter>
<filter id="filter1_dddi" x="30.8367" y="11.5713" width="109.725" height="25.9103" filterUnits="userSpaceOnUse" color-interpolation-filters="sRGB">
<feFlood flood-opacity="0" result="BackgroundImageFix"/>
<feColorMatrix in="SourceAlpha" type="matrix" values="0 0 0 0 0 0 0 0 0 0 0 0 0 0 0 0 0 0 127 0"/>
<feOffset/>
<feGaussianBlur stdDeviation="1"/>
<feColorMatrix type="matrix" values="0 0 0 0 1 0 0 0 0 1 0 0 0 0 1 0 0 0 0.4 0"/>
<feBlend mode="normal" in2="BackgroundImageFix" result="effect1_dropShadow"/>
<feColorMatrix in="SourceAlpha" type="matrix" values="0 0 0 0 0 0 0 0 0 0 0 0 0 0 0 0 0 0 127 0"/>
<feOffset/>
<feGaussianBlur stdDeviation="2.5"/>
<feColorMatrix type="matrix" values="0 0 0 0 1 0 0 0 0 1 0 0 0 0 1 0 0 0 1 0"/>
<feBlend mode="normal" in2="effect1_dropShadow" result="effect2_dropShadow"/>
<feColorMatrix in="SourceAlpha" type="matrix" values="0 0 0 0 0 0 0 0 0 0 0 0 0 0 0 0 0 0 127 0"/>
<feOffset/>
<feGaussianBlur stdDeviation="1"/>
<feColorMatrix type="matrix" values="0 0 0 0 1 0 0 0 0 1 0 0 0 0 1 0 0 0 1 0"/>
<feBlend mode="normal" in2="effect2_dropShadow" result="effect3_dropShadow"/>
<feBlend mode="normal" in="SourceGraphic" in2="effect3_dropShadow" result="shape"/>
<feColorMatrix in="SourceAlpha" type="matrix" values="0 0 0 0 0 0 0 0 0 0 0 0 0 0 0 0 0 0 127 0" result="hardAlpha"/>
<feOffset dy="2"/>
<feGaussianBlur stdDeviation="1"/>
<feComposite in2="hardAlpha" operator="arithmetic" k2="-1" k3="1"/>
<feColorMatrix type="matrix" values="0 0 0 0 0 0 0 0 0 0 0 0 0 0 0 0 0 0 0.45 0"/>
<feBlend mode="normal" in2="shape" result="effect4_innerShadow"/>
</filter>
</defs>
</svg>
