<svg width="196" height="64" viewBox="0 0 196 64" fill="none" xmlns="http://www.w3.org/2000/svg">
<g clip-path="url(#clip0)">
<g filter="url(#filter0_ii)">
<path fill-rule="evenodd" clip-rule="evenodd" d="M33.2212 9.70409L23.161 2.65647C21.2312 1.56837 18.555 2.46042 17.6251 3.83836C17.6251 3.83836 2.97095 23.9515 2.64133 26.5723C2.34551 28.9245 3.77156 31.5177 5.00361 32.3808L19.6372 42.6323C20.4042 43.1696 24.3005 44.1603 26.1477 43.0395C27.6511 42.1272 33.8462 32.4948 36.4999 28.3685C37.1065 27.4254 37.528 26.7699 37.6662 26.572L37.6738 26.5612C38.4235 25.4879 40.5512 22.4418 39.605 21.7153L40.5485 20.3665L36.6306 17.6219L35.6812 18.9793C35.2927 18.6483 34.7307 18.1389 34.5125 17.5203C34.4047 17.2147 34.3472 16.7134 34.3472 16.7134C34.2701 16.3368 34.3651 15.4082 34.4656 14.4256C34.5804 13.303 34.7024 12.1099 34.5831 11.5894C34.3289 10.4801 33.8957 10.1766 33.2212 9.70409ZM21.1906 7.45068C20.7846 7.16625 20.5137 6.7712 20.4038 6.36215C20.2939 5.95306 20.345 5.52997 20.5833 5.18951C21.0592 4.5091 22.1028 4.41832 22.9142 4.98673L30.8008 10.5117C31.2068 10.7961 31.4778 11.1911 31.5877 11.6002C31.6975 12.0092 31.6464 12.4323 31.4082 12.7728C30.9323 13.4532 29.8886 13.544 29.0773 12.9756L21.1906 7.45068Z" fill="#0E4D70"/>
</g>
<path fill-rule="evenodd" clip-rule="evenodd" d="M36.0939 27.1054C35.964 27.455 35.5706 27.6275 35.2256 27.4861L31.1528 25.8165L17.2467 16.0747L14.7125 13.1326C14.4683 12.8491 14.5079 12.4194 14.7999 12.1855V12.1855C15.0773 11.9633 15.4807 12.0006 15.7127 12.27L18.1553 15.1058L31.7683 24.6423L35.7255 26.2644C36.0549 26.3994 36.2179 26.7716 36.0939 27.1054V27.1054Z" fill="white" fill-opacity="0.3"/>
<path fill-rule="evenodd" clip-rule="evenodd" d="M27.6033 39.2441C27.4735 39.5937 27.0801 39.7662 26.7351 39.6247L22.6623 37.9552L8.75618 28.2134L6.22201 25.2713C5.97779 24.9878 6.01741 24.5581 6.30935 24.3242V24.3242C6.58672 24.102 6.99015 24.1393 7.22218 24.4087L9.66471 27.2444L23.2778 36.7809L27.235 38.4031C27.5644 38.5381 27.7274 38.9103 27.6033 39.2441V39.2441Z" fill="white" fill-opacity="0.3"/>
<path d="M35.9258 17.3956L41.1775 20.9993L43.0904 18.2787C43.3824 17.8633 43.3439 17.3378 43.0044 17.1048L38.9822 14.3448C38.6427 14.1118 38.1307 14.2596 37.8387 14.675L35.9258 17.3956Z" fill="#E44444"/>
<path d="M37.5941 14.7924C37.8559 14.3981 38.3253 14.2539 38.6424 14.4703L39.2528 14.8868L38.4517 16.0933C38.2733 16.362 38.3039 16.6995 38.52 16.847L41.8493 19.1188L40.7844 20.7227L35.879 17.3754L37.5941 14.7924Z" fill="#F56666"/>
<g filter="url(#filter1_dddi)">
<path d="M55.6753 43.0671H50.287V21.7642H59.8703C61.7026 21.7642 63.1491 22.0142 64.2099 22.5141C65.2948 23.014 66.0784 23.8093 66.5606 24.9C67.0668 25.9907 67.32 27.4563 67.32 29.2969C67.32 31.9782 66.7655 33.9324 65.6565 35.1594C64.5716 36.3638 62.8237 36.9659 60.4128 36.9659H55.6753V43.0671ZM59.7257 33.1825C60.4489 33.1825 60.9552 33.0803 61.2445 32.8758C61.5338 32.6713 61.6785 32.2963 61.6785 31.751V27.3882C61.6785 26.8428 61.5338 26.4679 61.2445 26.2634C60.9552 26.0589 60.4489 25.9566 59.7257 25.9566H55.6753V33.1825H59.7257Z" fill="#19628B"/>
<path d="M85.0517 38.9769H77.4212L76.2278 43.0671H70.8394L77.0957 21.7642H85.3771L91.6334 43.0671H86.2451L85.0517 38.9769ZM83.9306 35.1935L81.3992 26.5701H81.0737L78.5422 35.1935H83.9306Z" fill="#19628B"/>
<path d="M97.6628 38.3634C99.9532 38.9996 102.364 39.3178 104.896 39.3178C106.125 39.3178 107.294 39.2496 108.403 39.1132V34.989L105.076 34.7163C103.027 34.5573 101.436 34.2619 100.303 33.8301C99.1938 33.3984 98.3982 32.7622 97.916 31.9214C97.4338 31.0579 97.1927 29.8763 97.1927 28.3766C97.1927 26.6042 97.4459 25.2067 97.9521 24.1842C98.4825 23.1617 99.3143 22.4232 100.447 21.9687C101.581 21.4915 103.136 21.2529 105.113 21.2529C107.789 21.2529 110.429 21.5256 113.032 22.071L112.345 26.127C111.188 25.8998 110.139 25.7521 109.199 25.6839C108.259 25.593 107.222 25.5476 106.089 25.5476C104.859 25.5476 103.835 25.6044 103.015 25.718V29.8763L106.342 30.1149C108.295 30.274 109.838 30.5921 110.971 31.0693C112.128 31.5465 112.96 32.2509 113.466 33.1825C113.973 34.0915 114.226 35.2958 114.226 36.7955C114.226 38.4316 113.924 39.7495 113.322 40.7493C112.719 41.7264 111.767 42.4422 110.465 42.8966C109.163 43.3511 107.427 43.5783 105.257 43.5783C102.195 43.5783 99.4107 43.2375 96.9034 42.5558L97.6628 38.3634Z" fill="#19628B"/>
<path d="M126.915 38.8747H136.136V43.0671H121.526V21.7642H136.172L135.521 25.9566H126.915V30.5239H134.834V34.3073H126.915V38.8747Z" fill="#19628B"/>
<path d="M144.005 21.7642H149.285L156.193 32.1941C156.53 32.7167 156.759 33.1484 156.88 33.4893C157 33.8074 157.073 34.1369 157.097 34.4777H157.314V21.7642H162.702V43.0671H157.422L150.551 32.6372C150.189 32.1145 149.948 31.6942 149.828 31.376C149.707 31.0579 149.635 30.7171 149.611 30.3535H149.394V43.0671H144.005V21.7642Z" fill="#19628B"/>
<path d="M183.64 38.9769H176.009L174.816 43.0671H169.427L175.684 21.7642H183.965L190.221 43.0671H184.833L183.64 38.9769ZM182.518 35.1935L179.987 26.5701H179.662L177.13 35.1935H182.518Z" fill="#19628B"/>
</g>
</g>
<defs>
<filter id="filter0_ii" x="2.60193" y="-0.829102" width="38.9466" height="45.3806" filterUnits="userSpaceOnUse" color-interpolation-filters="sRGB">
<feFlood flood-opacity="0" result="BackgroundImageFix"/>
<feBlend mode="normal" in="SourceGraphic" in2="BackgroundImageFix" result="shape"/>
<feColorMatrix in="SourceAlpha" type="matrix" values="0 0 0 0 0 0 0 0 0 0 0 0 0 0 0 0 0 0 127 0" result="hardAlpha"/>
<feOffset dy="-3"/>
<feGaussianBlur stdDeviation="1.5"/>
<feComposite in2="hardAlpha" operator="arithmetic" k2="-1" k3="1"/>
<feColorMatrix type="matrix" values="0 0 0 0 0.0625 0 0 0 0 0.0625 0 0 0 0 0.0625 0 0 0 0.45 0"/>
<feBlend mode="normal" in2="shape" result="effect1_innerShadow"/>
<feColorMatrix in="SourceAlpha" type="matrix" values="0 0 0 0 0 0 0 0 0 0 0 0 0 0 0 0 0 0 127 0" result="hardAlpha"/>
<feOffset dx="1" dy="1"/>
<feGaussianBlur stdDeviation="1.5"/>
<feComposite in2="hardAlpha" operator="arithmetic" k2="-1" k3="1"/>
<feColorMatrix type="matrix" values="0 0 0 0 0.624236 0 0 0 0 0.764926 0 0 0 0 0.841667 0 0 0 1 0"/>
<feBlend mode="normal" in2="effect1_innerShadow" result="effect2_innerShadow"/>
</filter>
<filter id="filter1_dddi" x="45.287" y="16.2529" width="149.934" height="32.3254" filterUnits="userSpaceOnUse" color-interpolation-filters="sRGB">
<feFlood flood-opacity="0" result="BackgroundImageFix"/>
<feColorMatrix in="SourceAlpha" type="matrix" values="0 0 0 0 0 0 0 0 0 0 0 0 0 0 0 0 0 0 127 0"/>
<feOffset/>
<feGaussianBlur stdDeviation="1"/>
<feColorMatrix type="matrix" values="0 0 0 0 1 0 0 0 0 1 0 0 0 0 1 0 0 0 0.4 0"/>
<feBlend mode="normal" in2="BackgroundImageFix" result="effect1_dropShadow"/>
<feColorMatrix in="SourceAlpha" type="matrix" values="0 0 0 0 0 0 0 0 0 0 0 0 0 0 0 0 0 0 127 0"/>
<feOffset/>
<feGaussianBlur stdDeviation="2.5"/>
<feColorMatrix type="matrix" values="0 0 0 0 1 0 0 0 0 1 0 0 0 0 1 0 0 0 1 0"/>
<feBlend mode="normal" in2="effect1_dropShadow" result="effect2_dropShadow"/>
<feColorMatrix in="SourceAlpha" type="matrix" values="0 0 0 0 0 0 0 0 0 0 0 0 0 0 0 0 0 0 127 0"/>
<feOffset/>
<feGaussianBlur stdDeviation="1"/>
<feColorMatrix type="matrix" values="0 0 0 0 1 0 0 0 0 1 0 0 0 0 1 0 0 0 1 0"/>
<feBlend mode="normal" in2="effect2_dropShadow" result="effect3_dropShadow"/>
<feBlend mode="normal" in="SourceGraphic" in2="effect3_dropShadow" result="shape"/>
<feColorMatrix in="SourceAlpha" type="matrix" values="0 0 0 0 0 0 0 0 0 0 0 0 0 0 0 0 0 0 127 0" result="hardAlpha"/>
<feOffset dy="2"/>
<feGaussianBlur stdDeviation="1"/>
<feComposite in2="hardAlpha" operator="arithmetic" k2="-1" k3="1"/>
<feColorMatrix type="matrix" values="0 0 0 0 0 0 0 0 0 0 0 0 0 0 0 0 0 0 0.45 0"/>
<feBlend mode="normal" in2="shape" result="effect4_innerShadow"/>
</filter>
<clipPath id="clip0">
<rect width="196" height="64" fill="white"/>
</clipPath>
</defs>
</svg>
