<svg width="380" height="380" viewBox="0 0 380 380" fill="none" xmlns="http://www.w3.org/2000/svg">
<path opacity="0.15" d="M246.696 207.509L247.349 206.908C247.585 206.693 247.776 206.434 247.912 206.146C248.048 205.857 248.125 205.545 248.14 205.226C248.155 204.907 248.106 204.589 247.998 204.289C247.89 203.989 247.723 203.713 247.508 203.478L234.135 188.821C251.133 167.331 259.431 140.213 257.373 112.868C255.316 85.5236 243.055 59.9589 223.033 41.2662C203.01 22.5735 176.696 12.1248 149.331 12.0011C121.967 11.8775 95.5596 22.088 75.37 40.5989C55.1804 59.1099 42.6899 84.5628 40.3865 111.888C38.0831 139.213 46.1358 166.405 62.9406 188.047C79.7454 209.69 104.069 224.195 131.067 228.673C158.065 233.151 185.755 227.274 208.623 212.212L222.014 226.851C222.226 227.087 222.483 227.278 222.769 227.414C223.056 227.549 223.367 227.627 223.683 227.642C224 227.656 224.316 227.608 224.614 227.5C224.912 227.391 225.185 227.225 225.419 227.01L226.089 226.409L325.261 335H363L246.696 207.509Z" fill="#212121"/>
<path d="M375.677 355.017L213.804 194L193 214.694L354.891 375.711C356.33 377.142 358.051 378.261 359.946 378.997C361.841 379.733 363.869 380.07 365.902 379.988C367.935 379.905 369.928 379.404 371.757 378.517C373.585 377.63 375.209 376.375 376.526 374.832C378.909 372.025 380.144 368.43 379.987 364.76C379.829 361.09 378.291 357.612 375.677 355.017Z" fill="#156D9D"/>
<path d="M177 203.876L197.418 224.263C197.916 224.736 198.577 225 199.265 225C199.952 225 200.613 224.736 201.111 224.263L224.262 201.147C224.736 200.65 225 199.99 225 199.304C225 198.618 224.736 197.958 224.262 197.461L203.917 177L177 203.876Z" fill="#E0E0E0"/>
<path d="M210.273 183L213 185.712L190.078 219L180 208.981L210.273 183Z" fill="#BDBDBD"/>
<path opacity="0.64" d="M203 223.213L223.6 203L225 204.374L208.898 229L203 223.213Z" fill="#212121"/>
<path d="M115.5 0C92.6563 0 70.3255 6.77396 51.3317 19.4653C32.3378 32.1566 17.5339 50.1952 8.79199 71.3C0.0500662 92.4049 -2.23725 115.628 2.21934 138.033C6.67594 160.438 17.6763 181.018 33.8292 197.171C49.9822 213.324 70.5623 224.324 92.9671 228.781C115.372 233.237 138.595 230.95 159.7 222.208C180.805 213.466 198.843 198.662 211.535 179.668C224.226 160.674 231 138.344 231 115.5C230.995 84.8689 218.825 55.4938 197.166 33.8343C175.506 12.1749 146.131 0.0047027 115.5 0ZM115.5 207.127C97.378 207.127 79.6629 201.753 64.595 191.685C49.5271 181.617 37.783 167.307 30.848 150.564C23.913 133.821 22.0985 115.398 25.634 97.6245C29.1694 79.8507 37.896 63.5244 50.7102 50.7101C63.5244 37.8959 79.8507 29.1693 97.6246 25.6339C115.398 22.0984 133.821 23.913 150.564 30.848C167.307 37.783 181.617 49.527 191.685 64.5949C201.753 79.6628 207.127 97.3779 207.127 115.5C207.127 127.533 204.757 139.447 200.152 150.564C195.547 161.681 188.798 171.782 180.29 180.29C171.782 188.798 161.681 195.547 150.564 200.152C139.447 204.757 127.533 207.127 115.5 207.127Z" fill="white"/>
<path opacity="0.8" d="M115 206C165.258 206 206 165.258 206 115C206 64.7421 165.258 24 115 24C64.7421 24 24 64.7421 24 115C24 165.258 64.7421 206 115 206Z" fill="#5D99BB"/>
<path d="M54.3645 54.3497C41.266 67.4797 33.3228 80.891 36.8297 84.2306C40.3367 87.5703 53.593 79.7309 66.6389 66.6536C79.6847 53.5763 87.6806 40.1122 84.1736 36.7726C80.6667 33.433 67.463 41.2196 54.3645 54.3497Z" fill="#0E4D70"/>
</svg>
