<svg width="14" height="17" viewBox="0 0 14 17" fill="none" xmlns="http://www.w3.org/2000/svg">
<path d="M6.97656 0C3.68109 0 1 2.68109 1 5.97656C1 7.09 1.30842 8.1766 1.89213 9.1193L6.63636 16.7646C6.72724 16.911 6.88735 17 7.05954 17C7.06086 17 7.06216 17 7.06349 17C7.23717 16.9986 7.39761 16.9069 7.48683 16.7579L12.1101 9.03855C12.6616 8.11577 12.9531 7.05696 12.9531 5.97656C12.9531 2.68109 10.272 0 6.97656 0ZM11.2553 8.52716L7.052 15.5452L2.73875 8.5945C2.25289 7.80984 1.98945 6.90459 1.98945 5.97656C1.98945 3.23033 4.23033 0.989453 6.97656 0.989453C9.72279 0.989453 11.9604 3.23033 11.9604 5.97656C11.9604 6.87706 11.7143 7.75917 11.2553 8.52716Z" fill="#123D6F"/>
<path d="M6.98828 2.98828C5.34054 2.98828 4 4.32882 4 5.97656C4 7.61378 5.31873 8.96484 6.98828 8.96484C8.67842 8.96484 9.97656 7.59578 9.97656 5.97656C9.97656 4.32882 8.63602 2.98828 6.98828 2.98828ZM6.98828 7.97539C5.88404 7.97539 4.98945 7.07781 4.98945 5.97656C4.98945 4.87807 5.88979 3.97773 6.98828 3.97773C8.08677 3.97773 8.98379 4.87807 8.98379 5.97656C8.98379 7.06174 8.11002 7.97539 6.98828 7.97539Z" fill="#123D6F"/>
</svg>
