<svg width="47" height="48" viewBox="0 0 47 48" fill="none" xmlns="http://www.w3.org/2000/svg">
<g filter="url(#filter0_i)">
<ellipse cx="23.0444" cy="24" rx="23.0444" ry="24" fill="#F5F6F8"/>
</g>
<g clip-path="url(#clip0)">
<path d="M30.4117 31.8533L29.0335 30.1697L27.8955 31.2564L30.3627 34.2702L34.3587 29.7996L33.2659 28.6602L30.4117 31.8533Z" fill="#123D6F"/>
<path d="M14.6426 17H29.7655V24.3476L28.556 26.24C28.556 26.24 27.8991 26.5343 27.519 26.8C26.7977 27.304 27.5058 27.1696 27.0005 27.92C26.7826 28.2436 25.4383 29.6411 25.445 29.6C25.4862 29.3472 25.3726 30.85 25.445 31.28C25.5595 31.9604 25.5944 32.3949 25.9635 32.96C26.2773 33.4405 25.9847 34.5 25.9847 34.5L14.6426 33.9167V17Z" fill="#123D6F"/>
<path d="M31.1893 24.5103C31.0508 24.5103 30.9135 24.5158 30.7772 24.5254L30.3368 16.3832H26.7428V14.8C26.7427 12.1533 24.7491 10 22.2985 10C19.8479 10 17.8542 12.1533 17.8542 14.8V16.3832H14.2601L13.4618 31.1419C13.3997 32.2911 13.7682 33.3851 14.4995 34.2224C15.2309 35.0598 16.2206 35.5209 17.2863 35.5209H26.3556C27.5018 37.0331 29.2429 38 31.1893 38C34.6328 38 37.4343 34.9743 37.4343 31.2552C37.4343 27.5361 34.6328 24.5103 31.1893 24.5103ZM19.3732 14.8C19.3732 13.0579 20.6854 11.6406 22.2984 11.6406C23.9114 11.6406 25.2237 13.0579 25.2237 14.8V16.3832H19.3732V14.8ZM17.2863 33.8803C16.6432 33.8803 16.0459 33.602 15.6045 33.0966C15.1632 32.5913 14.9408 31.9311 14.9783 31.2376L15.693 18.0239H17.8541V20.0795H19.3732V18.0239H25.2237V20.0795H26.7427V18.0239H28.9039L29.2724 24.8359C26.7639 25.7118 24.9443 28.2582 24.9443 31.2553C24.9443 32.1859 25.1198 33.0731 25.4368 33.8803H17.2863V33.8803ZM31.1893 36.3594C28.5834 36.3594 26.4634 34.0697 26.4634 31.2552C26.4634 28.4407 28.5834 26.151 31.1893 26.151C33.7952 26.151 35.9152 28.4407 35.9152 31.2552C35.9152 34.0697 33.7952 36.3594 31.1893 36.3594Z" fill="#123D6F"/>
<mask id="path-5-inside-1" fill="white">
<path d="M37.1155 26.893C36.5364 26.0129 35.7928 25.2738 34.9327 24.7235C34.0726 24.1732 33.1152 23.8239 32.1223 23.6982C31.1294 23.5725 30.1231 23.6732 29.1685 23.9938C28.2139 24.3143 27.3322 24.8476 26.5803 25.5592C25.8285 26.2708 25.2232 27.1448 24.8037 28.1248C24.3841 29.1049 24.1596 30.169 24.1446 31.2486C24.1297 32.3282 24.3246 33.3991 24.7168 34.3923C25.109 35.3854 25.6897 36.2786 26.4215 37.0142L27.0292 36.309C26.3887 35.6653 25.8804 34.8835 25.5372 34.0143C25.194 33.1452 25.0234 32.2079 25.0365 31.263C25.0496 30.3182 25.2461 29.3868 25.6133 28.5291C25.9805 27.6715 26.5102 26.9065 27.1682 26.2837C27.8262 25.661 28.5979 25.1942 29.4333 24.9137C30.2688 24.6331 31.1495 24.545 32.0184 24.655C32.8874 24.765 33.7253 25.0707 34.4781 25.5523C35.2308 26.0339 35.8816 26.6808 36.3884 27.451L37.1155 26.893Z"/>
</mask>
<path d="M37.1155 26.893C36.5364 26.0129 35.7928 25.2738 34.9327 24.7235C34.0726 24.1732 33.1152 23.8239 32.1223 23.6982C31.1294 23.5725 30.1231 23.6732 29.1685 23.9938C28.2139 24.3143 27.3322 24.8476 26.5803 25.5592C25.8285 26.2708 25.2232 27.1448 24.8037 28.1248C24.3841 29.1049 24.1596 30.169 24.1446 31.2486C24.1297 32.3282 24.3246 33.3991 24.7168 34.3923C25.109 35.3854 25.6897 36.2786 26.4215 37.0142L27.0292 36.309C26.3887 35.6653 25.8804 34.8835 25.5372 34.0143C25.194 33.1452 25.0234 32.2079 25.0365 31.263C25.0496 30.3182 25.2461 29.3868 25.6133 28.5291C25.9805 27.6715 26.5102 26.9065 27.1682 26.2837C27.8262 25.661 28.5979 25.1942 29.4333 24.9137C30.2688 24.6331 31.1495 24.545 32.0184 24.655C32.8874 24.765 33.7253 25.0707 34.4781 25.5523C35.2308 26.0339 35.8816 26.6808 36.3884 27.451L37.1155 26.893Z" stroke="white" mask="url(#path-5-inside-1)"/>
</g>
<defs>
<filter id="filter0_i" x="0" y="0" width="46.0888" height="50" filterUnits="userSpaceOnUse" color-interpolation-filters="sRGB">
<feFlood flood-opacity="0" result="BackgroundImageFix"/>
<feBlend mode="normal" in="SourceGraphic" in2="BackgroundImageFix" result="shape"/>
<feColorMatrix in="SourceAlpha" type="matrix" values="0 0 0 0 0 0 0 0 0 0 0 0 0 0 0 0 0 0 127 0" result="hardAlpha"/>
<feOffset dy="2"/>
<feGaussianBlur stdDeviation="2.5"/>
<feComposite in2="hardAlpha" operator="arithmetic" k2="-1" k3="1"/>
<feColorMatrix type="matrix" values="0 0 0 0 0 0 0 0 0 0 0 0 0 0 0 0 0 0 0.25 0"/>
<feBlend mode="normal" in2="shape" result="effect1_innerShadow"/>
</filter>
<clipPath id="clip0">
<rect width="25.925" height="28" fill="white" transform="translate(12.4824 10)"/>
</clipPath>
</defs>
</svg>
