<svg width="11" height="20" viewBox="0 0 11 20" fill="none" xmlns="http://www.w3.org/2000/svg">
<path d="M1.00667 10.664L1.00657 10.6639C0.840656 10.485 0.75 10.2459 0.75 9.99997C0.75 9.75438 0.84021 9.51492 1.00667 9.33593L1.00667 10.664ZM1.00667 10.664L8.7145 18.9665L8.71455 18.9666C9.0662 19.3452 9.64396 19.3444 9.99483 18.9647L9.99489 18.9647C10.3355 18.5959 10.3346 18.006 9.99315 17.6382L9.99315 17.6382L2.90202 9.99997L9.9934 2.36175L9.99343 2.36172C10.3348 1.99391 10.3357 1.40434 9.99517 1.03555L9.99509 1.03546C9.8217 0.84783 9.58971 0.75 9.35397 0.75C9.1189 0.75 8.88775 0.847166 8.71458 1.03358L8.71453 1.03363L1.00687 9.33572L1.00667 10.664Z" fill="#808080" stroke="#808080" stroke-width="0.5"/>
</svg>
