<svg width="25" height="25" viewBox="0 0 25 25" fill="none" xmlns="http://www.w3.org/2000/svg">
<g clip-path="url(#clip0)">
<path d="M25 2.32142C25 1.70136 24.7585 1.11832 24.32 0.679863C23.4148 -0.225319 21.9421 -0.225319 21.0369 0.679863L19.7948 1.92203L19.0575 1.18478L16.8101 3.43213L16.3523 2.97434C15.8743 2.49633 15.2388 2.23308 14.5628 2.23308C13.8868 2.23308 13.2513 2.49633 12.7733 2.97434L7.56545 8.18217L8.6013 9.21803L13.8091 4.01019C14.0105 3.80891 14.2781 3.69801 14.5628 3.69801C14.8475 3.69801 15.1152 3.80891 15.3165 4.01019L15.7742 4.46798L1.30789 18.9343L0 24.9998L6.06555 23.692L23.8152 5.94244L23.0779 5.20519L24.32 3.96302C24.7585 3.52457 25 2.94157 25 2.32142ZM3.01425 19.2997L16.8101 5.50384L19.4961 8.18979L5.7002 21.9856L3.01425 19.2997ZM2.41103 20.7682L4.2317 22.5889L1.91056 23.0893L2.41103 20.7682ZM20.5319 7.15394L17.846 4.46798L19.0575 3.25648L21.7434 5.94244L20.5319 7.15394ZM23.2842 2.92717L22.042 4.16933L20.8306 2.95788L22.0727 1.71572C22.4067 1.38176 22.9502 1.38176 23.2841 1.71572C23.4459 1.87749 23.535 2.09264 23.535 2.32142C23.535 2.55019 23.446 2.76534 23.2842 2.92717Z" fill="#123D6F"/>
</g>
<defs>
<clipPath id="clip0">
<rect width="25" height="25" fill="white"/>
</clipPath>
</defs>
</svg>
