<svg width="45" height="45" viewBox="0 0 45 45" fill="none" xmlns="http://www.w3.org/2000/svg">
<g filter="url(#filter0_d)">
<g filter="url(#filter1_d)">
<path d="M13.7192 28.9362C16.9716 32.827 20.8868 35.8904 25.3554 38.058C27.0567 38.8649 29.332 39.8222 31.867 39.9863C32.0241 39.9932 32.1745 40 32.3316 40C34.033 40 35.3995 39.4119 36.5133 38.2016C36.5201 38.1948 36.5338 38.1811 36.5406 38.1674C36.9369 37.6888 37.3879 37.258 37.8593 36.7998C38.1805 36.4921 38.5084 36.1707 38.8227 35.8425C40.2781 34.3245 40.2781 32.3962 38.8091 30.926L34.7026 26.8164C34.0056 26.0916 33.172 25.7087 32.2975 25.7087C31.4229 25.7087 30.5824 26.0916 29.865 26.8096L27.4189 29.2576C27.1934 29.1276 26.9611 29.0114 26.7424 28.902C26.4691 28.7652 26.2163 28.6353 25.9908 28.4917C23.7634 27.0763 21.7409 25.23 19.8072 22.8572C18.8301 21.6196 18.1742 20.5802 17.7164 19.5203C18.3587 18.9391 18.9599 18.3305 19.5407 17.7356C19.7457 17.5236 19.9575 17.3116 20.1693 17.0997C20.9073 16.3612 21.3036 15.5064 21.3036 14.638C21.3036 13.7696 20.9141 12.9148 20.1693 12.1763L18.1332 10.1386C17.894 9.8993 17.6685 9.6668 17.4362 9.42748C16.9853 8.96249 16.5138 8.48384 16.0492 8.05305C15.3454 7.36241 14.5187 7 13.6441 7C12.7763 7 11.9427 7.36241 11.2116 8.05988L8.65616 10.6173C7.7269 11.5472 7.20078 12.6755 7.09146 13.9816C6.96164 15.6158 7.26228 17.3527 8.04121 19.4519C9.23694 22.7 11.0408 25.7155 13.7192 28.9362ZM8.75865 14.1252C8.84064 13.2157 9.18911 12.4567 9.84505 11.8002L12.3868 9.25653C12.7831 8.8736 13.2204 8.6753 13.6441 8.6753C14.0609 8.6753 14.4845 8.8736 14.874 9.2702C15.3317 9.69416 15.7622 10.1386 16.2268 10.6104C16.4592 10.8498 16.6983 11.0891 16.9374 11.3353L18.9736 13.373C19.3972 13.7969 19.6159 14.2277 19.6159 14.6517C19.6159 15.0756 19.3972 15.5064 18.9736 15.9304C18.7618 16.1424 18.55 16.3612 18.3382 16.5731C17.7027 17.2159 17.1083 17.8245 16.4523 18.4057C16.4387 18.4194 16.4318 18.4262 16.4182 18.4399C15.851 19.0075 15.9399 19.5477 16.0765 19.9579C16.0834 19.9784 16.0902 19.9921 16.097 20.0126C16.6231 21.2777 17.3542 22.4811 18.4953 23.9171C20.5451 26.4472 22.7043 28.4097 25.0821 29.9208C25.3759 30.1123 25.6902 30.2627 25.984 30.4132C26.2573 30.5499 26.5101 30.6799 26.7356 30.8235C26.7629 30.8371 26.7834 30.8508 26.8108 30.8645C27.0362 30.9807 27.2549 31.0354 27.4735 31.0354C28.0202 31.0354 28.3755 30.6867 28.4916 30.5705L31.0471 28.0131C31.4434 27.6165 31.8738 27.4045 32.2975 27.4045C32.8167 27.4045 33.2404 27.7259 33.5069 28.0131L37.627 32.1295C38.4469 32.9501 38.4401 33.839 37.6065 34.7074C37.3195 35.0151 37.0189 35.3092 36.6977 35.6169C36.2195 36.0818 35.7207 36.5605 35.2697 37.1007C34.4839 37.9486 33.5478 38.3452 32.3385 38.3452C32.2223 38.3452 32.0993 38.3384 31.9832 38.3315C29.742 38.1879 27.658 37.3127 26.0933 36.5673C21.8434 34.5091 18.1127 31.5893 15.0174 27.8831C12.4688 24.8129 10.7538 21.9546 9.61957 18.8912C8.9158 17.0108 8.64932 15.4996 8.75865 14.1252Z" fill="#123D6F"/>
</g>
</g>
<defs>
<filter id="filter0_d" x="-4" y="-4" width="53" height="53" filterUnits="userSpaceOnUse" color-interpolation-filters="sRGB">
<feFlood flood-opacity="0" result="BackgroundImageFix"/>
<feColorMatrix in="SourceAlpha" type="matrix" values="0 0 0 0 0 0 0 0 0 0 0 0 0 0 0 0 0 0 127 0"/>
<feOffset/>
<feGaussianBlur stdDeviation="2"/>
<feColorMatrix type="matrix" values="0 0 0 0 1 0 0 0 0 1 0 0 0 0 1 0 0 0 0.9 0"/>
<feBlend mode="normal" in2="BackgroundImageFix" result="effect1_dropShadow"/>
<feBlend mode="normal" in="SourceGraphic" in2="effect1_dropShadow" result="shape"/>
</filter>
<filter id="filter1_d" x="5.06226" y="7" width="36.8503" height="38" filterUnits="userSpaceOnUse" color-interpolation-filters="sRGB">
<feFlood flood-opacity="0" result="BackgroundImageFix"/>
<feColorMatrix in="SourceAlpha" type="matrix" values="0 0 0 0 0 0 0 0 0 0 0 0 0 0 0 0 0 0 127 0"/>
<feOffset dy="3"/>
<feGaussianBlur stdDeviation="1"/>
<feColorMatrix type="matrix" values="0 0 0 0 1 0 0 0 0 1 0 0 0 0 1 0 0 0 0.25 0"/>
<feBlend mode="normal" in2="BackgroundImageFix" result="effect1_dropShadow"/>
<feBlend mode="normal" in="SourceGraphic" in2="effect1_dropShadow" result="shape"/>
</filter>
</defs>
</svg>
