<svg width="18" height="18" viewBox="0 0 18 18" fill="none" xmlns="http://www.w3.org/2000/svg">
<mask id="path-1-outside-1" maskUnits="userSpaceOnUse" x="-0.704285" y="-0.733398" width="19" height="19" fill="black">
<rect fill="white" x="-0.704285" y="-0.733398" width="19" height="19"/>
<path d="M3.74069 11.6185C5.4238 13.632 7.44989 15.2173 9.76239 16.3391C10.6428 16.7567 11.8203 17.2521 13.1321 17.337C13.2135 17.3405 13.2913 17.3441 13.3726 17.3441C14.253 17.3441 14.9602 17.0397 15.5366 16.4134C15.5401 16.4099 15.5472 16.4028 15.5507 16.3957C15.7558 16.148 15.9892 15.9251 16.2332 15.688C16.3994 15.5287 16.5691 15.3624 16.7317 15.1926C17.4849 14.407 17.4849 13.4091 16.7247 12.6483L14.5996 10.5216C14.2389 10.1465 13.8075 9.94831 13.3549 9.94831C12.9023 9.94831 12.4674 10.1465 12.0961 10.518L10.8302 11.7849C10.7136 11.7176 10.5933 11.6575 10.4802 11.6009C10.3388 11.5301 10.2079 11.4628 10.0912 11.3885C8.93852 10.656 7.89188 9.70061 6.89121 8.4727C6.38557 7.83221 6.04612 7.29434 5.80921 6.74585C6.14159 6.44506 6.45275 6.13012 6.75331 5.82226C6.85939 5.71256 6.969 5.60287 7.07862 5.49317C7.4605 5.111 7.66558 4.66867 7.66558 4.21926C7.66558 3.76985 7.46403 3.32752 7.07862 2.94535L6.02491 1.89084C5.90115 1.76698 5.78446 1.64667 5.66424 1.52282C5.43087 1.28219 5.18689 1.03449 4.94644 0.811552C4.58224 0.454149 4.15439 0.266602 3.70179 0.266602C3.25273 0.266602 2.82134 0.454149 2.443 0.81509L1.12056 2.13854C0.63967 2.6198 0.367403 3.20367 0.310828 3.87955C0.243645 4.72528 0.399226 5.6241 0.802323 6.71046C1.42111 8.39131 2.3546 9.95185 3.74069 11.6185ZM1.1736 3.95386C1.21603 3.48322 1.39636 3.09043 1.73581 2.75072L3.05118 1.43435C3.25627 1.23619 3.48257 1.13357 3.70179 1.13357C3.91749 1.13357 4.13671 1.23619 4.33826 1.44143C4.57517 1.66082 4.79794 1.89084 5.03838 2.135C5.1586 2.25885 5.28236 2.38271 5.40612 2.5101L6.45983 3.56461C6.67905 3.78401 6.7922 4.00694 6.7922 4.22634C6.7922 4.44573 6.67905 4.66867 6.45983 4.88806C6.35021 4.99776 6.2406 5.111 6.13098 5.22069C5.80214 5.55333 5.49451 5.86826 5.15507 6.16905C5.14799 6.17613 5.14446 6.17966 5.13739 6.18674C4.8439 6.48045 4.88987 6.76 4.96059 6.97232C4.96412 6.98293 4.96766 6.99001 4.9712 7.00063C5.24346 7.65528 5.62181 8.27808 6.21231 9.02119C7.27309 10.3305 8.39045 11.3461 9.62096 12.1281C9.773 12.2272 9.93565 12.305 10.0877 12.3829C10.2291 12.4537 10.36 12.5209 10.4767 12.5952C10.4908 12.6023 10.5014 12.6094 10.5155 12.6164C10.6322 12.6766 10.7454 12.7049 10.8585 12.7049C11.1414 12.7049 11.3253 12.5244 11.3854 12.4643L12.7078 11.1408C12.9129 10.9356 13.1357 10.8259 13.3549 10.8259C13.6236 10.8259 13.8429 10.9922 13.9808 11.1408L16.1129 13.2711C16.5373 13.6957 16.5337 14.1558 16.1023 14.6052C15.9538 14.7644 15.7982 14.9166 15.6321 15.0758C15.3845 15.3164 15.1264 15.5641 14.893 15.8437C14.4864 16.2825 14.002 16.4877 13.3761 16.4877C13.316 16.4877 13.2524 16.4842 13.1923 16.4806C12.0325 16.4063 10.954 15.9534 10.1443 15.5677C7.94492 14.5025 6.0143 12.9915 4.41252 11.0736C3.09361 9.48475 2.20609 8.0056 1.61913 6.42029C1.25492 5.44717 1.11702 4.66513 1.1736 3.95386Z"/>
</mask>
<path d="M3.74069 11.6185C5.4238 13.632 7.44989 15.2173 9.76239 16.3391C10.6428 16.7567 11.8203 17.2521 13.1321 17.337C13.2135 17.3405 13.2913 17.3441 13.3726 17.3441C14.253 17.3441 14.9602 17.0397 15.5366 16.4134C15.5401 16.4099 15.5472 16.4028 15.5507 16.3957C15.7558 16.148 15.9892 15.9251 16.2332 15.688C16.3994 15.5287 16.5691 15.3624 16.7317 15.1926C17.4849 14.407 17.4849 13.4091 16.7247 12.6483L14.5996 10.5216C14.2389 10.1465 13.8075 9.94831 13.3549 9.94831C12.9023 9.94831 12.4674 10.1465 12.0961 10.518L10.8302 11.7849C10.7136 11.7176 10.5933 11.6575 10.4802 11.6009C10.3388 11.5301 10.2079 11.4628 10.0912 11.3885C8.93852 10.656 7.89188 9.70061 6.89121 8.4727C6.38557 7.83221 6.04612 7.29434 5.80921 6.74585C6.14159 6.44506 6.45275 6.13012 6.75331 5.82226C6.85939 5.71256 6.969 5.60287 7.07862 5.49317C7.4605 5.111 7.66558 4.66867 7.66558 4.21926C7.66558 3.76985 7.46403 3.32752 7.07862 2.94535L6.02491 1.89084C5.90115 1.76698 5.78446 1.64667 5.66424 1.52282C5.43087 1.28219 5.18689 1.03449 4.94644 0.811552C4.58224 0.454149 4.15439 0.266602 3.70179 0.266602C3.25273 0.266602 2.82134 0.454149 2.443 0.81509L1.12056 2.13854C0.63967 2.6198 0.367403 3.20367 0.310828 3.87955C0.243645 4.72528 0.399226 5.6241 0.802323 6.71046C1.42111 8.39131 2.3546 9.95185 3.74069 11.6185ZM1.1736 3.95386C1.21603 3.48322 1.39636 3.09043 1.73581 2.75072L3.05118 1.43435C3.25627 1.23619 3.48257 1.13357 3.70179 1.13357C3.91749 1.13357 4.13671 1.23619 4.33826 1.44143C4.57517 1.66082 4.79794 1.89084 5.03838 2.135C5.1586 2.25885 5.28236 2.38271 5.40612 2.5101L6.45983 3.56461C6.67905 3.78401 6.7922 4.00694 6.7922 4.22634C6.7922 4.44573 6.67905 4.66867 6.45983 4.88806C6.35021 4.99776 6.2406 5.111 6.13098 5.22069C5.80214 5.55333 5.49451 5.86826 5.15507 6.16905C5.14799 6.17613 5.14446 6.17966 5.13739 6.18674C4.8439 6.48045 4.88987 6.76 4.96059 6.97232C4.96412 6.98293 4.96766 6.99001 4.9712 7.00063C5.24346 7.65528 5.62181 8.27808 6.21231 9.02119C7.27309 10.3305 8.39045 11.3461 9.62096 12.1281C9.773 12.2272 9.93565 12.305 10.0877 12.3829C10.2291 12.4537 10.36 12.5209 10.4767 12.5952C10.4908 12.6023 10.5014 12.6094 10.5155 12.6164C10.6322 12.6766 10.7454 12.7049 10.8585 12.7049C11.1414 12.7049 11.3253 12.5244 11.3854 12.4643L12.7078 11.1408C12.9129 10.9356 13.1357 10.8259 13.3549 10.8259C13.6236 10.8259 13.8429 10.9922 13.9808 11.1408L16.1129 13.2711C16.5373 13.6957 16.5337 14.1558 16.1023 14.6052C15.9538 14.7644 15.7982 14.9166 15.6321 15.0758C15.3845 15.3164 15.1264 15.5641 14.893 15.8437C14.4864 16.2825 14.002 16.4877 13.3761 16.4877C13.316 16.4877 13.2524 16.4842 13.1923 16.4806C12.0325 16.4063 10.954 15.9534 10.1443 15.5677C7.94492 14.5025 6.0143 12.9915 4.41252 11.0736C3.09361 9.48475 2.20609 8.0056 1.61913 6.42029C1.25492 5.44717 1.11702 4.66513 1.1736 3.95386Z" fill="#123D6F"/>
<path d="M3.74069 11.6185L3.58692 11.7464L3.58724 11.7468L3.74069 11.6185ZM9.76239 16.3391L9.6751 16.519L9.67669 16.5198L9.76239 16.3391ZM13.1321 17.337L13.1192 17.5366L13.1234 17.5368L13.1321 17.337ZM15.5366 16.4134L15.395 16.2719L15.3894 16.278L15.5366 16.4134ZM15.5507 16.3957L15.3967 16.2682L15.3821 16.2858L15.3718 16.3063L15.5507 16.3957ZM16.2332 15.688L16.0948 15.5436L16.0938 15.5445L16.2332 15.688ZM16.7317 15.1926L16.5874 15.0542L16.5873 15.0542L16.7317 15.1926ZM16.7247 12.6483L16.8661 12.5069L16.7247 12.6483ZM14.5996 10.5216L14.4554 10.6602L14.4581 10.6629L14.5996 10.5216ZM12.0961 10.518L12.2376 10.6594L12.0961 10.518ZM10.8302 11.7849L10.7304 11.9582L10.8633 12.0347L10.9717 11.9262L10.8302 11.7849ZM10.4802 11.6009L10.3907 11.7797L10.4802 11.6009ZM10.0912 11.3885L10.1987 11.2198L10.1985 11.2197L10.0912 11.3885ZM6.89121 8.4727L6.73421 8.59664L6.73617 8.59905L6.89121 8.4727ZM5.80921 6.74585L5.67502 6.59755L5.56881 6.69366L5.62561 6.82515L5.80921 6.74585ZM6.75331 5.82226L6.89642 5.96198L6.89708 5.96129L6.75331 5.82226ZM7.07862 2.94535L6.93714 3.08672L6.93779 3.08737L7.07862 2.94535ZM6.02491 1.89084L5.88343 2.0322L6.02491 1.89084ZM5.66424 1.52282L5.52067 1.66206L5.52073 1.66212L5.66424 1.52282ZM4.94644 0.811552L4.80631 0.954357L4.81046 0.958212L4.94644 0.811552ZM2.443 0.81509L2.30491 0.670338L2.30152 0.673723L2.443 0.81509ZM1.12056 2.13854L1.26203 2.27991H1.26203L1.12056 2.13854ZM0.310828 3.87955L0.111523 3.86287L0.111456 3.86371L0.310828 3.87955ZM0.802323 6.71046L0.99001 6.64137L0.989831 6.64088L0.802323 6.71046ZM1.1736 3.95386L0.974394 3.9359L0.974227 3.938L1.1736 3.95386ZM1.73581 2.75072L1.59434 2.60936L1.73581 2.75072ZM3.05118 1.43435L2.91219 1.2905L2.90971 1.29298L3.05118 1.43435ZM4.33826 1.44143L4.1954 1.58172L4.20237 1.58817L4.33826 1.44143ZM5.03838 2.135L5.18189 1.9957L5.18088 1.99467L5.03838 2.135ZM5.40612 2.5101L5.26265 2.64947L5.26464 2.65147L5.40612 2.5101ZM6.45983 3.56461L6.6013 3.42324L6.45983 3.56461ZM6.13098 5.22069L5.98951 5.07932L5.98875 5.08008L6.13098 5.22069ZM5.15507 6.16905L5.02218 6.01908L5.01359 6.02768L5.15507 6.16905ZM5.13739 6.18674L5.27886 6.32811L5.13739 6.18674ZM4.96059 6.97232L5.15034 6.90912L4.96059 6.97232ZM4.9712 7.00063L4.78145 7.06383L4.78374 7.07072L4.78653 7.07743L4.9712 7.00063ZM6.21231 9.02119L6.05572 9.14562L6.05691 9.14709L6.21231 9.02119ZM9.62096 12.1281L9.73016 11.9605L9.72823 11.9593L9.62096 12.1281ZM10.0877 12.3829L9.99654 12.5609L9.9982 12.5618L10.0877 12.3829ZM10.4767 12.5952L10.3692 12.7639L10.3779 12.7695L10.3872 12.7741L10.4767 12.5952ZM10.5155 12.6164L10.6072 12.4387L10.605 12.4376L10.5155 12.6164ZM11.3854 12.4643L11.5269 12.6057L11.3854 12.4643ZM12.7078 11.1408L12.5664 10.9995L12.7078 11.1408ZM13.9808 11.1408L13.8341 11.277L13.8394 11.2823L13.9808 11.1408ZM16.1129 13.2711L16.2544 13.1297L16.2543 13.1296L16.1129 13.2711ZM16.1023 14.6052L15.958 14.4666L15.9561 14.4688L16.1023 14.6052ZM15.6321 15.0758L15.4937 14.9314L15.4926 14.9324L15.6321 15.0758ZM14.893 15.8437L15.0399 15.9798L15.0466 15.9719L14.893 15.8437ZM13.1923 16.4806L13.1795 16.6802L13.1805 16.6803L13.1923 16.4806ZM10.1443 15.5677L10.0571 15.7477L10.0583 15.7482L10.1443 15.5677ZM4.41252 11.0736L4.25863 11.2013L4.25901 11.2018L4.41252 11.0736ZM1.61913 6.42029L1.80668 6.35085L1.80644 6.35019L1.61913 6.42029ZM3.58724 11.7468C5.28823 13.7817 7.33676 15.3848 9.67511 16.519L9.84968 16.1591C7.56302 15.0499 5.55937 13.4824 3.89414 11.4903L3.58724 11.7468ZM9.67669 16.5198C10.5618 16.9396 11.7678 17.4491 13.1192 17.5366L13.1451 17.1374C11.8728 17.055 10.7239 16.5737 9.84809 16.1584L9.67669 16.5198ZM13.1234 17.5368C13.2038 17.5403 13.2861 17.5441 13.3726 17.5441V17.1441C13.2964 17.1441 13.2232 17.1408 13.1408 17.1372L13.1234 17.5368ZM13.3726 17.5441C14.3068 17.5441 15.0681 17.2179 15.6838 16.5488L15.3894 16.278C14.8523 16.8616 14.1992 17.1441 13.3726 17.1441V17.5441ZM15.6781 16.5548C15.6798 16.5531 15.6874 16.5456 15.6956 16.536C15.7027 16.5276 15.7173 16.5098 15.7296 16.4851L15.3718 16.3063C15.3767 16.2966 15.3814 16.2895 15.3844 16.2853C15.3875 16.2809 15.3902 16.2776 15.3918 16.2758C15.3946 16.2724 15.3969 16.2702 15.3951 16.272L15.6781 16.5548ZM15.7048 16.5233C15.9014 16.2857 16.1259 16.0711 16.3725 15.8314L16.0938 15.5445C15.8525 15.779 15.6102 16.0103 15.3967 16.2682L15.7048 16.5233ZM16.3715 15.8324C16.5387 15.6722 16.7107 15.5037 16.8762 15.3309L16.5873 15.0542C16.4274 15.2212 16.26 15.3853 16.0948 15.5436L16.3715 15.8324ZM16.8761 15.331C17.2824 14.9072 17.4967 14.4134 17.4957 13.9107C17.4947 13.4076 17.278 12.9191 16.8661 12.5069L16.5832 12.7897C16.9316 13.1383 17.0949 13.5292 17.0957 13.9115C17.0965 14.2944 16.9342 14.6923 16.5874 15.0542L16.8761 15.331ZM16.8661 12.5069L14.741 10.3802L14.4581 10.6629L16.5832 12.7897L16.8661 12.5069ZM14.7437 10.383C14.3513 9.97487 13.87 9.74831 13.3549 9.74831V10.1483C13.745 10.1483 14.1264 10.3181 14.4554 10.6602L14.7437 10.383ZM13.3549 9.74831C12.8402 9.74831 12.3565 9.97452 11.9546 10.3767L12.2376 10.6594C12.5783 10.3184 12.9645 10.1483 13.3549 10.1483V9.74831ZM11.9546 10.3767L10.6888 11.6435L10.9717 11.9262L12.2376 10.6594L11.9546 10.3767ZM10.9301 11.6116C10.8075 11.5409 10.682 11.4782 10.5697 11.422L10.3907 11.7797C10.5046 11.8367 10.6196 11.8943 10.7304 11.9582L10.9301 11.6116ZM10.5697 11.422C10.428 11.3511 10.3056 11.288 10.1987 11.2198L9.9838 11.5572C10.1102 11.6377 10.2495 11.7091 10.3907 11.7797L10.5697 11.422ZM10.1985 11.2197C9.06665 10.5005 8.03562 9.56039 7.04625 8.34635L6.73617 8.59905C7.74815 9.84083 8.81039 10.8116 9.98397 11.5573L10.1985 11.2197ZM7.04819 8.34877C6.54926 7.71678 6.22064 7.19398 5.99282 6.66654L5.62561 6.82515C5.87161 7.39469 6.22189 7.94764 6.73423 8.59663L7.04819 8.34877ZM5.94341 6.89414C6.28079 6.58883 6.59571 6.27 6.89642 5.96198L6.6102 5.68255C6.3098 5.99025 6.0024 6.30129 5.67502 6.59755L5.94341 6.89414ZM6.89708 5.96129C7.00183 5.85297 7.11027 5.74444 7.22009 5.63454L6.93714 5.3518C6.82773 5.46129 6.71695 5.57216 6.60954 5.68323L6.89708 5.96129ZM7.22009 5.63454C7.63092 5.22339 7.86558 4.73263 7.86558 4.21926H7.46558C7.46558 4.6047 7.29007 4.9986 6.93714 5.3518L7.22009 5.63454ZM7.86558 4.21926C7.86558 3.7066 7.63506 3.21545 7.21944 2.80333L6.93779 3.08737C7.29301 3.43959 7.46558 3.8331 7.46558 4.21926H7.86558ZM7.22009 2.80398L6.16638 1.74947L5.88343 2.0322L6.93714 3.08672L7.22009 2.80398ZM6.16638 1.74947C6.04383 1.62682 5.92817 1.50758 5.80775 1.38352L5.52073 1.66212C5.64075 1.78576 5.75847 1.90714 5.88343 2.0322L6.16638 1.74947ZM5.80781 1.38358C5.57412 1.14263 5.32702 0.891677 5.08242 0.664891L4.81046 0.958212C5.04675 1.17729 5.28761 1.42176 5.52067 1.66206L5.80781 1.38358ZM5.08653 0.668804C4.69019 0.279865 4.21371 0.0666016 3.70179 0.0666016V0.466602C4.09507 0.466602 4.4743 0.628434 4.80636 0.954299L5.08653 0.668804ZM3.70179 0.0666016C3.19308 0.0666016 2.71407 0.280073 2.30495 0.67038L2.58105 0.959801C2.92862 0.628225 3.31238 0.466602 3.70179 0.466602V0.0666016ZM2.30152 0.673723L0.979083 1.99717L1.26203 2.27991L2.58447 0.956458L2.30152 0.673723ZM0.979083 1.99717C0.465061 2.51159 0.172072 3.13953 0.111525 3.86287L0.510131 3.89623C0.562733 3.26781 0.814279 2.728 1.26203 2.27991L0.979083 1.99717ZM0.111456 3.86371C0.0412953 4.74693 0.205052 5.67571 0.614815 6.78004L0.989831 6.64088C0.5934 5.57249 0.445994 4.70364 0.5102 3.89539L0.111456 3.86371ZM0.614637 6.77955C1.24274 8.48569 2.18918 10.0657 3.58692 11.7464L3.89446 11.4907C2.52002 9.83798 1.59949 8.29693 0.990009 6.64137L0.614637 6.77955ZM1.37279 3.97182C1.41107 3.54724 1.57132 3.19829 1.87729 2.89209L1.59434 2.60936C1.2214 2.98258 1.02099 3.4192 0.974405 3.9359L1.37279 3.97182ZM1.87729 2.89209L3.19266 1.57572L2.90971 1.29298L1.59434 2.60936L1.87729 2.89209ZM3.19015 1.57818C3.36824 1.4061 3.54716 1.33357 3.70179 1.33357V0.933568C3.41797 0.933568 3.14429 1.06627 2.91221 1.29052L3.19015 1.57818ZM3.70179 1.33357C3.85021 1.33357 4.02088 1.40368 4.19556 1.58156L4.48096 1.3013C4.25255 1.0687 3.98476 0.933568 3.70179 0.933568V1.33357ZM4.20237 1.58817C4.435 1.8036 4.65364 2.02935 4.89588 2.27533L5.18088 1.99467C4.94223 1.75233 4.71534 1.51805 4.47416 1.29469L4.20237 1.58817ZM4.89487 2.2743C4.95558 2.33684 5.01709 2.39929 5.07844 2.46158C5.13996 2.52403 5.20135 2.58635 5.26266 2.64946L5.54957 2.37074C5.48712 2.30646 5.42476 2.24315 5.3634 2.18087C5.30188 2.11842 5.2414 2.05701 5.18189 1.9957L4.89487 2.2743ZM5.26464 2.65147L6.31835 3.70598L6.6013 3.42324L5.54759 2.36873L5.26464 2.65147ZM6.31835 3.70598C6.51654 3.90432 6.59221 4.07939 6.59221 4.22634H6.9922C6.9922 3.93449 6.84157 3.66369 6.6013 3.42324L6.31835 3.70598ZM6.59221 4.22634C6.59221 4.37328 6.51654 4.54835 6.31835 4.74669L6.6013 5.02943C6.84157 4.78898 6.9922 4.51819 6.9922 4.22634H6.59221ZM6.31835 4.74669C6.26288 4.8022 6.20751 4.85851 6.1528 4.91415C6.0979 4.96998 6.04365 5.02514 5.98951 5.07933L6.27246 5.36206C6.32793 5.30655 6.3833 5.25024 6.43801 5.19461C6.49291 5.13878 6.54716 5.08362 6.6013 5.02943L6.31835 4.74669ZM5.98875 5.08008C5.65832 5.41433 5.35585 5.72392 5.02243 6.01936L5.2877 6.31874C5.63318 6.01261 5.94597 5.69232 6.27321 5.3613L5.98875 5.08008ZM5.01359 6.02768C5.00466 6.03662 5.0128 6.02847 5.00475 6.03653C5.00339 6.03789 5.00213 6.03915 5.00066 6.04062C4.99986 6.04142 4.99704 6.04424 4.99591 6.04537L5.27886 6.32811C5.28779 6.31917 5.27965 6.32732 5.2877 6.31926C5.28906 6.3179 5.29032 6.31664 5.29179 6.31517C5.29259 6.31437 5.29541 6.31155 5.29654 6.31042L5.01359 6.02768ZM4.99591 6.04537C4.82071 6.22071 4.7362 6.40415 4.7139 6.58567C4.69223 6.76208 4.73179 6.91828 4.77084 7.03552L5.15034 6.90912C5.11867 6.81403 5.09988 6.7243 5.11092 6.63443C5.12133 6.54967 5.16058 6.44648 5.27886 6.32811L4.99591 6.04537ZM4.77084 7.03552C4.77469 7.04708 4.77851 7.05652 4.78018 7.0607C4.78204 7.06537 4.78176 7.06478 4.78145 7.06383L5.16095 6.93743C5.1571 6.92586 5.15328 6.91643 5.15161 6.91224C5.14974 6.90758 5.15002 6.90817 5.15034 6.90912L4.77084 7.03552ZM4.78653 7.07743C5.06755 7.75312 5.4567 8.39178 6.05573 9.14562L6.36889 8.89676C5.78691 8.16438 5.41938 7.55744 5.15586 6.92383L4.78653 7.07743ZM6.05691 9.14709C7.12942 10.4709 8.26254 11.5018 9.51368 12.2969L9.72823 11.9593C8.51835 11.1904 7.41677 10.1901 6.36771 8.89529L6.05691 9.14709ZM9.51176 12.2957C9.67511 12.4021 9.85112 12.4865 9.99655 12.5609L10.1788 12.2049C10.0202 12.1236 9.87089 12.0523 9.73015 11.9606L9.51176 12.2957ZM9.9982 12.5618C10.1399 12.6326 10.2622 12.6958 10.3692 12.7639L10.5841 12.4265C10.4577 12.346 10.3184 12.2747 10.1772 12.204L9.9982 12.5618ZM10.3872 12.7741C10.3886 12.7748 10.3902 12.7757 10.3968 12.7794C10.4026 12.7827 10.4133 12.7889 10.4261 12.7953L10.605 12.4376C10.6036 12.4369 10.602 12.436 10.5954 12.4322C10.5896 12.4289 10.5789 12.4227 10.5661 12.4164L10.3872 12.7741ZM10.4239 12.7942C10.5658 12.8674 10.7101 12.9049 10.8585 12.9049V12.5049C10.7806 12.5049 10.6987 12.4859 10.6072 12.4387L10.4239 12.7942ZM10.8585 12.9049C11.2283 12.9049 11.4631 12.6695 11.5269 12.6057L11.2439 12.3229C11.1875 12.3794 11.0545 12.5049 10.8585 12.5049V12.9049ZM11.5269 12.6057L12.8493 11.2822L12.5664 10.9995L11.2439 12.3229L11.5269 12.6057ZM12.8493 11.2822C13.0303 11.1011 13.2051 11.0259 13.3549 11.0259V10.6259C13.0662 10.6259 12.7955 10.7701 12.5664 10.9995L12.8493 11.2822ZM13.3549 11.0259C13.5409 11.0259 13.7106 11.1437 13.8342 11.2769L14.1274 11.0048C13.9752 10.8408 13.7064 10.6259 13.3549 10.6259V11.0259ZM13.8394 11.2823L15.9716 13.4126L16.2543 13.1296L14.1221 10.9993L13.8394 11.2823ZM15.9715 13.4125C16.1584 13.5996 16.2298 13.7721 16.2285 13.9273C16.2273 14.084 16.1517 14.2649 15.958 14.4667L16.2466 14.7437C16.4844 14.496 16.6262 14.2222 16.6285 13.9304C16.6308 13.637 16.4918 13.3673 16.2544 13.1297L15.9715 13.4125ZM15.9561 14.4688C15.8115 14.6237 15.6592 14.7728 15.4937 14.9314L15.7704 15.2202C15.9373 15.0604 16.0961 14.905 16.2486 14.7416L15.9561 14.4688ZM15.4926 14.9324C15.2472 15.171 14.9809 15.4264 14.7395 15.7155L15.0466 15.9719C15.272 15.7019 15.5219 15.4618 15.7715 15.2192L15.4926 14.9324ZM14.7463 15.7077C14.3796 16.1035 13.9494 16.2877 13.3761 16.2877V16.6877C14.0546 16.6877 14.5932 16.4615 15.0397 15.9796L14.7463 15.7077ZM13.3761 16.2877C13.3227 16.2877 13.2646 16.2846 13.204 16.281L13.1805 16.6803C13.2401 16.6838 13.3093 16.6877 13.3761 16.6877V16.2877ZM13.205 16.281C12.0854 16.2093 11.0358 15.7708 10.2303 15.3871L10.0583 15.7482C10.8722 16.136 11.9796 16.6033 13.1795 16.6802L13.205 16.281ZM10.2314 15.3877C8.05805 14.3351 6.14992 12.8419 4.56602 10.9454L4.25901 11.2018C5.87867 13.1412 7.83179 14.67 10.0571 15.7477L10.2314 15.3877ZM4.56641 10.9459C3.25888 9.37071 2.38429 7.91089 1.80668 6.35085L1.43157 6.48974C2.02789 8.10031 2.92835 9.59879 4.25863 11.2013L4.56641 10.9459ZM1.80644 6.35019C1.44851 5.39384 1.31947 4.64226 1.37297 3.96972L0.974227 3.938C0.914571 4.688 1.06133 5.50049 1.43181 6.49039L1.80644 6.35019Z" fill="#123D6E" mask="url(#path-1-outside-1)"/>
</svg>
