<svg width="242" height="225" viewBox="0 0 242 225" fill="none" xmlns="http://www.w3.org/2000/svg">
<path opacity="0.15" d="M154.765 121.456L155.075 121.056C155.187 120.914 155.271 120.75 155.32 120.574C155.369 120.399 155.384 120.216 155.362 120.034C155.341 119.853 155.284 119.678 155.196 119.519C155.107 119.36 154.988 119.219 154.845 119.107L145.978 112.075C153.519 98.3785 155.653 82.312 151.956 67.0752C148.259 51.8384 139.001 38.5496 126.027 29.8557C113.053 21.1617 97.3149 17.7007 81.9472 20.1619C66.5794 22.6231 52.7101 30.826 43.1015 43.1367C33.493 55.4473 28.8505 70.9623 30.0987 86.5913C31.347 102.22 38.3943 116.816 49.8371 127.472C61.2799 138.128 76.2783 144.061 91.845 144.091C107.412 144.12 122.404 138.243 133.836 127.631L142.712 134.651C142.853 134.764 143.015 134.849 143.188 134.899C143.362 134.949 143.543 134.964 143.722 134.943C143.901 134.922 144.074 134.865 144.232 134.777C144.389 134.688 144.527 134.569 144.638 134.426L144.958 134.025L210.707 186.116C210.707 186.116 230.655 193.282 231.219 193.687C231.784 194.092 235.507 189.496 235.187 187.557C234.868 185.619 231.885 182.625 231.885 182.625L154.765 121.456Z" fill="#212121"/>
<path d="M237.096 193.211L130.703 117.662L120.869 131.247L227.271 206.794C228.217 207.465 229.293 207.935 230.432 208.172C231.571 208.41 232.748 208.411 233.889 208.175C235.03 207.94 236.11 207.472 237.061 206.802C238.012 206.133 238.813 205.275 239.413 204.284C240.499 202.483 240.864 200.345 240.434 198.293C240.005 196.242 238.813 194.428 237.096 193.211Z" fill="#123D6F"/>
<path d="M107.915 137.224L130.963 153.723C131.521 154.102 132.204 154.253 132.87 154.143C133.537 154.033 134.135 153.672 134.542 153.133L153.289 127.029C153.669 126.472 153.82 125.79 153.71 125.125C153.601 124.459 153.239 123.862 152.7 123.456L129.711 106.874L107.915 137.224Z" fill="#156D9D"/>
<path opacity="0.8" d="M86.7912 132.198C115.431 127.477 134.857 100.651 130.181 72.2784C125.505 43.9062 98.4968 24.7326 69.857 29.453C41.2172 34.1734 21.7909 61.0002 26.4671 89.3724C31.1434 117.745 58.1514 136.918 86.7912 132.198Z" fill="#5D99BB"/>
<g filter="url(#filter0_d)">
<path d="M67.9424 15.5014C55.098 17.6184 43.1698 23.4966 33.6663 32.3928C24.1627 41.289 17.5106 52.8035 14.5511 65.4803C11.5916 78.1571 12.4576 91.4269 17.0398 103.611C21.6219 115.796 29.7143 126.348 40.2936 133.934C50.8729 141.519 63.4639 145.797 76.4745 146.227C89.4851 146.656 102.331 143.218 113.387 136.347C124.444 129.475 133.215 119.48 138.59 107.624C143.966 95.7682 145.706 82.5845 143.589 69.7401C140.747 52.5175 131.182 37.1285 116.996 26.9573C102.811 16.786 85.1659 12.6653 67.9424 15.5014ZM87.1374 131.963C76.9479 133.642 66.4892 132.262 57.0839 127.998C47.6786 123.733 39.7491 116.775 34.2982 108.004C28.8472 99.233 26.1197 89.0424 26.4604 78.721C26.8011 68.3997 30.1948 58.4111 36.2124 50.0185C42.2299 41.6259 50.601 35.2062 60.2671 31.5711C69.9332 27.9361 80.4602 27.2491 90.5167 29.5968C100.573 31.9446 109.708 37.2218 116.765 44.761C123.823 52.3003 128.486 61.763 130.165 71.9525C131.28 78.7181 131.052 85.637 129.493 92.3144C127.934 98.9917 125.075 105.297 121.08 110.869C117.084 116.442 112.03 121.172 106.207 124.792C100.383 128.411 93.903 130.848 87.1374 131.963Z" fill="#156D9D"/>
</g>
<path d="M40.9363 52.542C33.5821 62.8248 29.7264 72.7254 32.4553 74.5828C35.1842 76.4401 43.2309 69.6982 50.5555 59.4566C57.8801 49.215 61.7654 39.2732 59.0365 37.4158C56.3076 35.5584 48.2904 42.2591 40.9363 52.542Z" fill="#DEDEDE"/>
<g clip-path="url(#clip0)">
<path d="M78.566 52.9981C63.3661 52.9992 51.0008 65.3661 51.0019 80.566C51.0029 95.7659 63.3698 108.131 78.5697 108.13C93.7697 108.129 106.135 95.7622 106.134 80.5623C106.133 65.3624 93.7661 52.9971 78.566 52.9981ZM78.5694 103.118C66.1331 103.119 56.0147 93.0021 56.0139 80.5657C56.013 68.1292 66.1301 58.011 78.5664 58.0101C91.0026 58.0093 101.121 68.1263 101.122 80.5626C101.123 92.9989 91.0057 103.117 78.5694 103.118Z" fill="white" fill-opacity="0.3"/>
<path d="M78.5702 83.0403C78.57 83.0403 78.5704 83.0403 78.5702 83.0403C74.6879 83.0405 71.0378 84.5527 68.2929 87.2982C67.3143 88.2767 67.3144 89.8635 68.2931 90.8421C68.7825 91.3315 69.4239 91.5762 70.0653 91.5761C70.7066 91.5761 71.348 91.3313 71.8371 90.8419C73.6356 89.0431 76.027 88.0526 78.5706 88.0524C81.1141 88.0523 83.5056 89.0426 85.3044 90.841C86.2829 91.8194 87.8697 91.8193 88.8484 90.8408C89.827 89.8622 89.8269 88.2754 88.8481 87.2968C86.1027 84.5517 82.4527 83.04 78.5702 83.0403Z" fill="white" fill-opacity="0.3"/>
<path d="M70.2392 77.5812C70.8623 76.9597 71.2181 76.0976 71.2181 75.2188C71.218 74.34 70.8621 73.478 70.2389 72.8564C69.6174 72.2351 68.7553 71.8776 67.8765 71.8777C66.9961 71.8778 66.1357 72.2353 65.5142 72.8567C64.8928 73.4784 64.5353 74.3405 64.5354 75.2193C64.5354 76.098 64.893 76.9601 65.5146 77.5815C66.1361 78.203 66.9982 78.5604 67.8769 78.5604C68.7557 78.5603 69.6178 78.2027 70.2392 77.5812Z" fill="white" fill-opacity="0.3"/>
<path d="M89.2593 71.8758C88.3789 71.8758 87.5185 72.2334 86.897 72.8548C86.2739 73.4765 85.9181 74.3385 85.9182 75.2173C85.9183 76.0961 86.2742 76.9581 86.8974 77.5796C87.5189 78.201 88.381 78.5585 89.2598 78.5584C90.1385 78.5584 91.0006 78.2006 91.622 77.5792C92.2451 76.9577 92.6009 76.0956 92.6009 75.2169C92.6008 74.3381 92.2449 73.476 91.6217 72.8544C91.0002 72.2332 90.1381 71.8757 89.2593 71.8758Z" fill="white" fill-opacity="0.3"/>
</g>
<defs>
<filter id="filter0_d" x="0" y="3.79785" width="157.292" height="157.292" filterUnits="userSpaceOnUse" color-interpolation-filters="sRGB">
<feFlood flood-opacity="0" result="BackgroundImageFix"/>
<feColorMatrix in="SourceAlpha" type="matrix" values="0 0 0 0 0 0 0 0 0 0 0 0 0 0 0 0 0 0 127 0"/>
<feOffset dy="2"/>
<feGaussianBlur stdDeviation="1.5"/>
<feColorMatrix type="matrix" values="0 0 0 0 0 0 0 0 0 0 0 0 0 0 0 0 0 0 0.25 0"/>
<feBlend mode="normal" in2="BackgroundImageFix" result="effect1_dropShadow"/>
<feBlend mode="normal" in="SourceGraphic" in2="effect1_dropShadow" result="shape"/>
</filter>
<clipPath id="clip0">
<rect width="55.132" height="55.132" fill="white" transform="translate(51 53)"/>
</clipPath>
</defs>
</svg>
