<svg width="24" height="23" viewBox="0 0 24 23" fill="none" xmlns="http://www.w3.org/2000/svg">
<path d="M23.71 21.4735L18.1011 15.8605C19.4953 14.1827 20.3352 12.0282 20.3352 9.68067C20.3352 4.34273 15.9959 0 10.6623 0C5.3286 0 0.989319 4.34273 0.989319 9.68067C0.989319 15.0182 5.3286 19.3606 10.6623 19.3606C13.0079 19.3606 15.1609 18.5202 16.8374 17.1249L22.4464 22.7381C22.6208 22.9127 22.8495 23 23.0782 23C23.3068 23 23.5355 22.9127 23.7101 22.7381C24.059 22.3888 24.059 21.8227 23.71 21.4735ZM2.7764 9.68067C2.7764 5.32888 6.314 1.78845 10.6623 1.78845C15.0105 1.78845 18.548 5.32888 18.548 9.68067C18.548 14.0321 15.0105 17.5722 10.6623 17.5722C6.314 17.5722 2.7764 14.0321 2.7764 9.68067Z" fill="#123D6F"/>
</svg>
