<svg width="13" height="8" viewBox="0 0 13 8" fill="none" xmlns="http://www.w3.org/2000/svg">
<path d="M6.97965 7.04917L6.97975 7.04906L12.0535 1.91051L12.0536 1.91046C12.3159 1.64456 12.3155 1.21515 12.0522 0.949788L12.0522 0.949731C11.7875 0.683025 11.3578 0.6838 11.0939 0.951058L11.0939 0.951063L6.49998 5.60358L1.90613 0.950892L1.9061 0.950861C1.64218 0.683656 1.21269 0.682881 0.947948 0.949534L0.947869 0.949615C0.81581 1.08275 0.75 1.25731 0.75 1.43069C0.75 1.60357 0.815366 1.77749 0.946555 1.91044L0.946605 1.91049L6.02003 7.04886C6.02007 7.0489 6.02012 7.04895 6.02017 7.049C6.1469 7.17758 6.31966 7.25 6.49998 7.25C6.68066 7.25 6.85309 7.1772 6.97965 7.04917Z" fill="#156D9D" stroke="#156D9D" stroke-width="0.5"/>
</svg>
