<svg width="25" height="25" viewBox="0 0 25 25" fill="none" xmlns="http://www.w3.org/2000/svg">
<g clip-path="url(#clip0)">
<path d="M11.5396 2.31051C11.8186 1.34867 13.1814 1.34867 13.4604 2.31051L15.0971 7.95238C15.2211 8.37974 15.6126 8.67376 16.0575 8.67376H21.5749C22.516 8.67376 22.9361 9.85541 22.2061 10.4494L17.5547 14.2344C17.2432 14.4878 17.1136 14.903 17.2255 15.2887L18.9551 21.2509C19.2283 22.1925 18.1241 22.924 17.3636 22.3051L13.1312 18.8611C12.7636 18.562 12.2364 18.562 11.8688 18.8611L7.63643 22.3051C6.87595 22.924 5.7717 22.1925 6.04487 21.2509L7.77455 15.2887C7.88643 14.903 7.75678 14.4878 7.44531 14.2344L2.79391 10.4494C2.06393 9.85541 2.48396 8.67376 3.42508 8.67376H8.94245C9.38743 8.67376 9.77887 8.37974 9.90285 7.95238L11.5396 2.31051Z" fill="#FFC42D"/>
</g>
<defs>
<clipPath id="clip0">
<rect width="25" height="25" fill="white"/>
</clipPath>
</defs>
</svg>
