<svg width="48" height="48" viewBox="0 0 48 48" fill="none" xmlns="http://www.w3.org/2000/svg">
<g filter="url(#filter0_i)">
<circle cx="24" cy="24" r="24" fill="#F5F6F8"/>
</g>
<path fill-rule="evenodd" clip-rule="evenodd" d="M16.377 15.2348C16.3917 15.0448 17.1658 14.6444 25.0531 10.7468C26.9971 9.78623 28.6031 9.00014 28.6222 9C28.7451 8.9991 28.9327 9.33411 29.9404 11.3539C31.5752 14.6302 32.1566 15.8506 32.1566 16.0061C32.1566 16.1194 31.2494 16.5933 27.0456 18.6768C20.5044 21.9185 19.9681 22.1767 19.8308 22.151C19.6779 22.1224 16.3583 15.4748 16.377 15.2348ZM9.07906 12.2026C9.52023 11.9648 10.1352 11.7384 10.7077 11.6029C11.0386 11.5246 12.0297 11.6103 12.3016 11.7407C12.5643 11.8667 12.6204 11.9568 13.3765 13.4676C13.8152 14.3443 14.291 15.311 14.4339 15.616C14.5768 15.9209 14.7861 16.3419 14.899 16.5516C15.5668 17.7907 18.3214 23.6357 18.3214 23.6357L18.3405 23.6704L19.6459 26.3257L19.6671 26.3671L20.0171 27.0762L20.306 27.6306C20.306 27.6306 20.4893 28.0636 20.5832 28.2543C21.2188 29.546 21.4148 29.9243 22.2059 31.3297L23.5671 34.084L24.4141 33.6653C24.8799 33.4351 25.444 33.155 25.6676 33.043C25.697 33.0282 25.8637 32.9709 25.9945 32.926C26.0547 32.9053 26.1073 32.8872 26.1354 32.8771C26.131 32.8752 26.1966 32.8424 26.1966 32.8424L27.5847 32.1709C27.5909 32.1709 27.6538 32.1339 27.6538 32.1339L30.5105 30.7344C30.4933 30.7492 31.4852 30.2483 31.4852 30.2483L31.5126 30.2353L36.2517 27.8863C36.2388 27.8783 36.3147 27.8536 36.3147 27.8536C36.3147 27.8536 36.9271 27.5247 36.9485 27.5247C37.0077 27.492 37.1217 27.4209 37.1217 27.4209C37.128 27.4209 37.2529 27.3584 37.4389 27.2653C37.9816 26.9937 39.0446 26.4617 39.2006 26.4617C39.6563 26.4617 40.0722 26.8567 40.1147 27.3297C40.1535 27.7629 39.9133 27.9675 38.5997 28.6198C37.5107 29.1605 35.8125 30.0005 27.7029 34.0095C26.3778 34.6646 25.2148 35.1961 25.2148 35.1961C25.2148 35.1961 24.4524 35.6119 24.4377 35.6238L23.6578 36.012L23.5641 36.4171C23.5125 36.64 23.4078 36.9627 23.3316 37.1342C23.1578 37.5249 22.5159 38.1761 22.512 38.1761C22.512 38.1839 21.8432 38.7215 21.2009 38.9268C20.8162 39.0496 19.9172 39.0128 19.4397 38.8544C17.9769 38.3696 17.1181 37.2348 17.1181 35.787C17.1181 34.9947 17.5388 33.9617 18.0351 33.5354L18.3611 33.2555C18.8213 32.8608 19.7406 32.5617 20.4965 32.5607C20.6586 32.5605 20.7911 32.5358 20.7911 32.5058C20.7911 32.4759 20.2263 31.3142 19.536 29.9243C18.8458 28.5345 17.914 26.6488 17.4654 25.734C15.958 22.6598 12.7521 16.1381 12.7521 16.1381L12.6548 15.8477C12.6548 15.8477 12.617 15.7223 12.6135 15.7223C12.6099 15.7223 11.7125 13.9204 11.7125 13.9204L11.6612 13.803C11.6679 13.8185 11.5497 13.5546 11.5497 13.5546L11.5046 13.5046L11.4353 13.4353C11.4353 13.4353 11.318 13.2936 11.1348 13.3323C10.0456 13.5626 9.02209 14.2168 8.73414 14.8666C8.59817 15.1736 8.20149 15.4427 7.88512 15.4427C7.5154 15.4427 7 14.895 7 14.5019C7 14.4395 7.09203 14.1955 7.20458 13.9598C7.412 13.5251 7.77937 13.0968 8.23752 12.7555C8.3764 12.6521 8.50558 12.5485 8.52464 12.5252C8.5437 12.5019 8.79319 12.3568 9.07906 12.2026ZM25.6245 12.9319C25.8189 12.7493 25.8253 12.4673 25.6395 12.2679C25.5481 12.1697 25.4197 12.1178 25.2757 12.1208C25.0518 12.1254 21.1628 14.0189 20.9132 14.2448C20.6491 14.4839 20.8651 15.0962 21.2135 15.0962C21.398 15.0962 25.4229 13.1214 25.6245 12.9319ZM26.7857 21.5385C29.187 20.3489 31.6195 19.1458 32.1912 18.865C33.1272 18.4053 33.2488 18.3418 33.3284 18.3761C33.3444 18.383 33.3588 18.394 33.3778 18.4064C33.4904 18.4801 36.7998 25.2109 36.7998 25.3661C36.7998 25.4692 35.9114 25.9354 32.5204 27.6118C25.2864 31.1878 24.5493 31.5417 24.4306 31.4962C24.2766 31.437 20.9139 24.6429 20.9684 24.5009C20.9918 24.4402 21.3278 24.2355 21.7152 24.046C22.1027 23.8565 24.3844 22.7281 26.7857 21.5385ZM30.3202 22.2092C30.4453 22.0183 30.4141 21.8008 30.2319 21.5933C30.1706 21.5235 30.0341 21.4743 29.9109 21.4775C29.6494 21.4843 25.6174 23.4658 25.4708 23.6596C25.415 23.7333 25.3684 23.8652 25.3672 23.9526C25.3645 24.1459 25.6543 24.452 25.8399 24.452C25.9141 24.452 26.9265 23.9869 28.0897 23.4186C29.5821 22.6895 30.2388 22.3334 30.3202 22.2092ZM20.3652 37.4139C21.2455 37.4139 21.9592 36.7003 21.9592 35.82C21.9592 34.9397 21.2455 34.226 20.3652 34.226C19.4849 34.226 18.7713 34.9397 18.7713 35.82C18.7713 36.7003 19.4849 37.4139 20.3652 37.4139Z" fill="#123D6F"/>
<defs>
<filter id="filter0_i" x="0" y="0" width="48" height="50" filterUnits="userSpaceOnUse" color-interpolation-filters="sRGB">
<feFlood flood-opacity="0" result="BackgroundImageFix"/>
<feBlend mode="normal" in="SourceGraphic" in2="BackgroundImageFix" result="shape"/>
<feColorMatrix in="SourceAlpha" type="matrix" values="0 0 0 0 0 0 0 0 0 0 0 0 0 0 0 0 0 0 127 0" result="hardAlpha"/>
<feOffset dy="2"/>
<feGaussianBlur stdDeviation="2.5"/>
<feComposite in2="hardAlpha" operator="arithmetic" k2="-1" k3="1"/>
<feColorMatrix type="matrix" values="0 0 0 0 0 0 0 0 0 0 0 0 0 0 0 0 0 0 0.25 0"/>
<feBlend mode="normal" in2="shape" result="effect1_innerShadow"/>
</filter>
</defs>
</svg>
