<svg width="75" height="75" viewBox="0 0 75 75" fill="none" xmlns="http://www.w3.org/2000/svg">
<path d="M22.8653 48.2273C28.286 54.7119 34.8112 59.8176 42.2589 63.4304C45.0945 64.7752 48.8867 66.3707 53.1116 66.6442C53.3735 66.6556 53.6241 66.667 53.886 66.667C56.7216 66.667 58.9992 65.6869 60.8554 63.6697C60.8668 63.6583 60.8896 63.6355 60.9009 63.6127C61.5614 62.8149 62.313 62.097 63.0988 61.3334C63.634 60.8205 64.1807 60.2849 64.7045 59.7379C67.1301 57.2078 67.1301 53.994 64.6817 51.5437L57.8376 44.6943C56.676 43.4863 55.2867 42.8481 53.8291 42.8481C52.3714 42.8481 50.9707 43.4863 49.775 44.6829L45.6981 48.7629C45.3223 48.5464 44.9351 48.3526 44.5707 48.1703C44.1152 47.9424 43.6938 47.7258 43.318 47.4865C39.6056 45.1274 36.2347 42.0503 33.012 38.0957C31.3835 36.0329 30.2902 34.3006 29.5273 32.5342C30.5977 31.5655 31.5999 30.5512 32.5678 29.5597C32.9095 29.2064 33.2625 28.8531 33.6155 28.4998C34.8454 27.2689 35.5059 25.8444 35.5059 24.397C35.5059 22.9496 34.8568 21.5251 33.6155 20.2942L30.2219 16.898C29.8233 16.4992 29.4475 16.1117 29.0604 15.7128C28.3087 14.9378 27.523 14.1401 26.7486 13.4221C25.5757 12.271 24.1977 11.667 22.7401 11.667C21.2938 11.667 19.9045 12.271 18.686 13.4335L14.4269 17.6958C12.8781 19.2457 12.0013 21.1262 11.8191 23.3029C11.6027 26.0267 12.1038 28.9214 13.402 32.4202C15.3949 37.8336 18.4013 42.8595 22.8653 48.2273ZM14.5977 23.5422C14.7344 22.0265 15.3151 20.7615 16.4084 19.6674L20.6447 15.4279C21.3052 14.7897 22.034 14.4592 22.7401 14.4592C23.4347 14.4592 24.1408 14.7897 24.7899 15.4507C25.5529 16.1573 26.2703 16.898 27.0447 17.6844C27.4319 18.0833 27.8305 18.4822 28.229 18.8924L31.6226 22.2886C32.3287 22.9952 32.6931 23.7132 32.6931 24.4198C32.6931 25.1264 32.3287 25.8444 31.6226 26.551C31.2696 26.9042 30.9166 27.2689 30.5636 27.6222C29.5045 28.6935 28.5137 29.7078 27.4205 30.6765C27.3977 30.6993 27.3863 30.7107 27.3636 30.7335C26.4184 31.6794 26.5664 32.5798 26.7942 33.2635C26.8055 33.2977 26.8169 33.3205 26.8283 33.3547C27.7052 35.4631 28.9237 37.4689 30.8255 39.8622C34.2418 44.0789 37.8404 47.3497 41.8034 49.8684C42.2931 50.1875 42.8169 50.4382 43.3066 50.6889C43.7621 50.9169 44.1835 51.1334 44.5593 51.3727C44.6048 51.3955 44.639 51.4183 44.6846 51.4411C45.0604 51.6349 45.4248 51.726 45.7892 51.726C46.7002 51.726 47.2924 51.1448 47.486 50.9511L51.7451 46.6887C52.4056 46.0277 53.123 45.6744 53.8291 45.6744C54.6945 45.6744 55.4006 46.2101 55.8447 46.6887L62.7116 53.5495C64.0782 54.9171 64.0668 56.3986 62.6775 57.846C62.1992 58.3589 61.6981 58.8489 61.1629 59.3618C60.3657 60.1367 59.5344 60.9345 58.7828 61.8348C57.4732 63.248 55.913 63.909 53.8974 63.909C53.7038 63.909 53.4988 63.8976 53.3052 63.8862C49.57 63.6469 46.0967 62.1881 43.4888 60.9459C36.4055 57.5155 30.1878 52.6492 25.029 46.4722C20.7813 41.3551 17.923 36.5914 16.0326 31.4857C14.8596 28.3516 14.4155 25.833 14.5977 23.5422Z" fill="white" fill-opacity="0.5"/>
</svg>
