<svg width="35" height="35" viewBox="0 0 35 35" fill="none" xmlns="http://www.w3.org/2000/svg">
<g clip-path="url(#clip0)">
<path d="M17.4998 35.0006C27.1647 35.0006 34.9996 27.1656 34.9996 17.5008C34.9996 7.8359 27.1647 0.000976562 17.4998 0.000976562C7.83492 0.000976562 0 7.8359 0 17.5008C0 27.1656 7.83492 35.0006 17.4998 35.0006Z" fill="#41B4E6"/>
<path d="M35 17.5C35 17.0736 34.9839 16.6511 34.9539 16.2322L27.7011 8.97949L7.29883 17.0048L15.1049 24.8109L15.2073 25.1795L15.3398 25.0459L15.3403 25.0464L15.2073 25.1795L23.8422 33.8145C30.3719 31.2742 35 24.9279 35 17.5Z" fill="#0091C8"/>
<path d="M15.8005 20.0496L23.7091 26.0206L27.7012 8.97949L7.29883 17.0048L13.507 19.0611L24.8371 11.4612L15.8005 20.0496Z" fill="white"/>
<path d="M13.507 19.0609L15.2073 25.1793L15.8005 20.0493L24.8371 11.4609L13.507 19.0609Z" fill="#D2D2D7"/>
<path d="M18.3708 21.9904L15.2073 25.1798L15.8005 20.0498L18.3708 21.9904Z" fill="#B9B9BE"/>
</g>
<defs>
<clipPath id="clip0">
<rect width="35" height="35" fill="white"/>
</clipPath>
</defs>
</svg>
