<svg width="35" height="35" viewBox="0 0 35 35" fill="none" xmlns="http://www.w3.org/2000/svg">
<path d="M17.5 35C27.165 35 35 27.165 35 17.5C35 7.83502 27.165 0 17.5 0C7.83502 0 0 7.83502 0 17.5C0 27.165 7.83502 35 17.5 35Z" fill="#6F3FAA"/>
<path d="M25.0921 9.60039C20.8325 8.57158 16.5653 7.36818 12.197 8.89711C9.36871 9.9577 9.36871 13.0217 9.48656 15.6143C9.48656 16.3213 8.66167 17.2642 9.01515 18.0891C9.72219 20.4459 10.3115 22.8028 12.7862 23.9813C13.1398 24.217 12.7862 24.6883 13.0219 25.0419C12.904 25.0419 12.6683 25.1597 12.6683 25.2776C12.6683 25.8424 12.9218 26.7064 12.7535 27.2634L20.2734 34.7802C28.0042 33.5491 34.0463 27.256 34.8964 19.4048L25.0921 9.60039Z" fill="#512D84"/>
<path d="M26.7576 12.2997L26.7518 12.2766C26.2843 10.3862 24.1762 8.35789 22.2403 7.9359L22.2184 7.93139C19.0872 7.33407 15.9122 7.33407 12.7816 7.93139L12.7592 7.9359C10.8239 8.35789 8.71576 10.3864 8.24757 12.2766L8.24237 12.2997C7.66433 14.9395 7.66433 17.6168 8.24237 20.2566L8.24757 20.2797C8.69587 22.0893 10.6469 24.0246 12.5106 24.5567V26.6669C12.5106 27.4306 13.4413 27.8057 13.9705 27.2545L16.1085 25.0322C16.5722 25.0581 17.0362 25.0726 17.5 25.0726C19.0762 25.0726 20.6531 24.9235 22.2184 24.625L22.2402 24.6204C24.1761 24.1985 26.2842 22.17 26.7518 20.2798L26.7575 20.2567C27.3356 17.6168 27.3356 14.9397 26.7576 12.2997ZM25.0656 19.8738C24.7534 21.1071 23.1529 22.6403 21.8811 22.9236C20.2162 23.2402 18.538 23.3755 16.8616 23.3291C16.8282 23.3281 16.7962 23.3411 16.773 23.365C16.535 23.6092 15.212 24.9675 15.212 24.9675L13.5517 26.6716C13.4303 26.7982 13.217 26.712 13.217 26.5373V23.0417C13.217 22.9839 13.1758 22.9349 13.1191 22.9237C13.1187 22.9236 13.1184 22.9236 13.1181 22.9235C11.8463 22.6402 10.2463 21.107 9.93358 19.8738C9.4133 17.4876 9.4133 15.0687 9.93358 12.6825C10.2463 11.4492 11.8463 9.91607 13.1181 9.63279C16.0258 9.07976 18.974 9.07976 21.8812 9.63279C23.1535 9.91607 24.7535 11.4492 25.0657 12.6825C25.5865 15.0687 25.5865 17.4877 25.0656 19.8738Z" fill="white"/>
<path d="M20.2664 21.4875C20.0709 21.4281 19.8846 21.3883 19.7115 21.3166C17.9183 20.5726 16.2682 19.6128 14.9611 18.1417C14.2177 17.3051 13.6359 16.3606 13.1441 15.361C12.9109 14.887 12.7144 14.3945 12.514 13.905C12.3313 13.4588 12.6004 12.9978 12.8837 12.6614C13.1495 12.3458 13.4917 12.1044 13.8622 11.9263C14.1513 11.7874 14.4365 11.8675 14.6478 12.1126C15.1043 12.6425 15.5237 13.1995 15.8632 13.8138C16.072 14.1916 16.0147 14.6534 15.6362 14.9105C15.5442 14.973 15.4604 15.0464 15.3748 15.117C15.2996 15.1788 15.2289 15.2413 15.1773 15.3251C15.0832 15.4783 15.0787 15.6591 15.1393 15.8257C15.606 17.1082 16.3926 18.1055 17.6835 18.6428C17.8901 18.7287 18.0975 18.8287 18.3355 18.801C18.7341 18.7545 18.8631 18.3172 19.1425 18.0888C19.4154 17.8657 19.7643 17.8627 20.0583 18.0488C20.3525 18.235 20.6376 18.4347 20.921 18.6367C21.1992 18.835 21.4761 19.0288 21.7327 19.2548C21.9794 19.4722 22.0644 19.7572 21.9254 20.0521C21.6711 20.5922 21.301 21.0414 20.7672 21.3282C20.6164 21.409 20.4364 21.4352 20.2664 21.4875C20.0709 21.4281 20.4364 21.4352 20.2664 21.4875Z" fill="white"/>
<path d="M17.5044 11.3085C19.8497 11.3743 21.7762 12.9308 22.189 15.2495C22.2593 15.6446 22.2843 16.0485 22.3157 16.4496C22.3289 16.6182 22.2333 16.7785 22.0513 16.7807C21.8633 16.783 21.7788 16.6256 21.7665 16.4571C21.7423 16.1234 21.7256 15.7881 21.6796 15.4572C21.4368 13.71 20.0437 12.2645 18.3046 11.9544C18.0429 11.9077 17.7752 11.8955 17.51 11.8677C17.3425 11.8501 17.123 11.84 17.0859 11.6316C17.0548 11.457 17.2022 11.3179 17.3685 11.309C17.4135 11.3063 17.459 11.3084 17.5044 11.3085C19.8499 11.3743 17.459 11.3084 17.5044 11.3085Z" fill="white"/>
<path d="M21.0692 15.9293C21.0654 15.9587 21.0634 16.0275 21.0461 16.0923C20.9839 16.3277 20.6268 16.3572 20.5447 16.1196C20.5203 16.0492 20.5167 15.9689 20.5166 15.893C20.5157 15.3963 20.4078 14.9 20.1573 14.4678C19.8998 14.0235 19.5063 13.6502 19.0449 13.4242C18.7659 13.2876 18.4642 13.2026 18.1584 13.1521C18.0247 13.1299 17.8897 13.1166 17.7553 13.0979C17.5926 13.0753 17.5056 12.9716 17.5134 12.8112C17.5206 12.6609 17.6305 12.5527 17.7942 12.5621C18.3324 12.5926 18.8524 12.7091 19.3309 12.9624C20.304 13.4778 20.8599 14.2911 21.0221 15.3773C21.0295 15.4265 21.0412 15.4752 21.045 15.5246C21.0541 15.6464 21.06 15.7684 21.0692 15.9293C21.0654 15.9585 21.06 15.7684 21.0692 15.9293Z" fill="white"/>
<path d="M19.6103 15.8719C19.4141 15.8755 19.3091 15.7668 19.2888 15.587C19.2748 15.4616 19.2636 15.3345 19.2336 15.2124C19.1747 14.972 19.0469 14.7493 18.8447 14.602C18.7493 14.5324 18.6411 14.4818 18.5278 14.449C18.3839 14.4073 18.2343 14.4188 18.0908 14.3837C17.9349 14.3455 17.8486 14.2191 17.8732 14.0729C17.8955 13.9398 18.0249 13.8359 18.1705 13.8464C19.0798 13.9121 19.7297 14.3822 19.8225 15.4527C19.8291 15.5282 19.8368 15.608 19.82 15.6804C19.7912 15.8039 19.6996 15.8659 19.6103 15.8719C19.414 15.8754 19.6996 15.8659 19.6103 15.8719Z" fill="white"/>
<path d="M26.7577 12.2992L26.7519 12.2761C26.4898 11.2165 25.712 10.1136 24.7382 9.27441L23.4216 10.4412C24.2045 11.065 24.8752 11.9291 25.0658 12.682C25.5867 15.0682 25.5867 17.4871 25.0658 19.8734C24.7536 21.1067 23.153 22.6398 21.8813 22.9231C20.2164 23.2398 18.5383 23.375 16.8618 23.3286C16.8285 23.3277 16.7964 23.3406 16.7732 23.3646C16.5353 23.6088 15.2122 24.9671 15.2122 24.9671L13.5519 26.6711C13.4305 26.7977 13.2172 26.7117 13.2172 26.5369V23.0412C13.2172 22.9835 13.176 22.9345 13.1193 22.9232C13.1189 22.9232 13.1187 22.9231 13.1183 22.9231C12.3956 22.7621 11.5671 22.1973 10.9289 21.5135L9.62802 22.6662C10.4405 23.55 11.4884 24.2645 12.5106 24.5564V26.6665C12.5106 27.4303 13.4413 27.8054 13.9706 27.2542L16.1085 25.0319C16.5722 25.0578 17.0361 25.0723 17.5 25.0723C19.0762 25.0723 20.6531 24.9232 22.2184 24.6246L22.2402 24.6202C24.1761 24.1982 26.2842 22.1699 26.7518 20.2795L26.7575 20.2564C27.3356 17.6163 27.3356 14.9392 26.7577 12.2992Z" fill="#D1D1D1"/>
<path d="M20.2668 21.4873C20.4367 21.4349 20.0712 21.4279 20.2668 21.4873V21.4873Z" fill="white"/>
<path d="M21.7327 19.2538C21.4761 19.0279 21.1991 18.834 20.921 18.6357C20.6376 18.4337 20.3525 18.234 20.0584 18.0478C19.7644 17.8617 19.4155 17.8646 19.1425 18.0878C18.8632 18.3162 18.7342 18.7534 18.3356 18.8C18.0976 18.8277 17.8901 18.7276 17.6836 18.6417C16.8893 18.3113 16.2866 17.806 15.8312 17.168L14.8632 18.0259C14.8961 18.064 14.9274 18.1031 14.9609 18.1407C16.268 19.6118 17.9183 20.5716 19.7113 21.3155C19.8843 21.3873 20.0707 21.4272 20.2662 21.4865C20.0707 21.4271 20.4363 21.4342 20.2662 21.4865C20.4363 21.4342 20.6162 21.4079 20.7671 21.3271C21.3011 21.0402 21.6711 20.591 21.9254 20.0509C22.0644 19.7562 21.9795 19.4711 21.7327 19.2538Z" fill="#D1D1D1"/>
<path d="M17.5061 11.3086C17.5081 11.3086 17.51 11.3088 17.512 11.3088C17.6422 11.3133 19.7591 11.37 17.5061 11.3086Z" fill="white"/>
<path d="M20.8693 12.7031L20.4566 13.0689C21.1051 13.6999 21.5523 14.5361 21.6802 15.4564C21.7261 15.7874 21.743 16.1225 21.7671 16.4563C21.7794 16.6249 21.8639 16.7822 22.052 16.78C22.234 16.7778 22.3295 16.6176 22.3163 16.4489C22.2849 16.0479 22.26 15.6439 22.1897 15.2488C22.009 14.2338 21.5382 13.3649 20.8693 12.7031Z" fill="#D1D1D1"/>
<path d="M21.0221 15.3766C20.9039 14.5852 20.5756 13.9393 20.0302 13.4473L19.6187 13.812C19.8315 14.0008 20.0156 14.2227 20.1574 14.4673C20.4079 14.8996 20.5159 15.3958 20.5167 15.8925C20.5168 15.9684 20.5204 16.0487 20.5448 16.1193C20.6271 16.357 20.9841 16.3275 21.0463 16.092C21.0635 16.027 21.0655 15.9582 21.0694 15.929C21.0655 15.9583 21.0599 15.7681 21.0694 15.929C21.0599 15.7681 21.0542 15.646 21.045 15.5241C21.0413 15.4745 21.0295 15.4259 21.0221 15.3766Z" fill="#D1D1D1"/>
<path d="M21.069 15.9297C21.06 15.7688 21.0652 15.9589 21.069 15.9297V15.9297Z" fill="white"/>
<path d="M19.6094 15.8722C19.6124 15.872 19.6152 15.8704 19.6181 15.8701C19.61 15.8701 19.5977 15.8703 19.585 15.8708C19.5933 15.871 19.6008 15.8722 19.6094 15.8722Z" fill="white"/>
<path d="M19.6103 15.8735C19.6014 15.8736 19.5937 15.8723 19.5852 15.8721C19.5427 15.8732 19.4989 15.8754 19.6103 15.8735Z" fill="white"/>
<path d="M19.619 15.8701C19.616 15.8704 19.6131 15.872 19.6103 15.8722C19.6326 15.8706 19.6306 15.8701 19.619 15.8701Z" fill="white"/>
<path d="M19.1962 14.1865L18.7773 14.5579C18.8004 14.5719 18.823 14.5865 18.845 14.6024C19.0472 14.7497 19.175 14.9725 19.2339 15.2129C19.2638 15.335 19.2749 15.462 19.289 15.5875C19.3084 15.7593 19.4059 15.8649 19.5854 15.871C19.5985 15.8707 19.6114 15.8704 19.6195 15.8704C19.7059 15.8608 19.7925 15.8002 19.8202 15.6807C19.8369 15.6085 19.8293 15.5286 19.8226 15.453C19.7706 14.8545 19.5443 14.4439 19.1962 14.1865Z" fill="#D1D1D1"/>
</svg>
