<svg width="35" height="35" viewBox="0 0 35 35" fill="none" xmlns="http://www.w3.org/2000/svg">
<g clip-path="url(#clip0)">
<path d="M17.5 35C27.165 35 35 27.165 35 17.5C35 7.83502 27.165 0 17.5 0C7.83502 0 0 7.83502 0 17.5C0 27.165 7.83502 35 17.5 35Z" fill="#75B73B"/>
<path d="M24.6259 10.3784C23.6112 10.1246 22.1191 9.24823 21.1532 8.89694C17.3822 7.71849 12.3148 8.66123 10.9007 13.0215C10.7828 13.1394 10.5471 13.1394 10.4293 13.1394C7.60098 16.439 9.48654 20.4458 9.25084 24.099C9.17038 25.3868 8.49321 26.5255 7.62177 27.4888L14.9555 34.8149C15.7863 34.9358 16.6356 34.9996 17.5 34.9996C26.1431 34.9996 33.3219 28.7335 34.7435 20.4964L24.6259 10.3784Z" fill="#52891D"/>
<path d="M17.0103 7.41305C11.6763 7.6668 7.46706 12.1091 7.48312 17.449C7.48805 19.0754 7.8807 20.6105 8.57346 21.9672L7.50999 27.1293C7.4525 27.4086 7.70433 27.6531 7.98174 27.5873L13.04 26.389C14.3396 27.0364 15.7992 27.4102 17.344 27.4338C22.7959 27.5171 27.3417 23.1883 27.5118 17.7385C27.6938 11.8966 22.8724 7.1338 17.0103 7.41305ZM23.046 22.9641C21.5647 24.4453 19.595 25.2612 17.5 25.2612C16.2733 25.2612 15.0988 24.9859 14.0091 24.4432L13.3049 24.0923L10.2034 24.8269L10.8562 21.6581L10.5093 20.9784C9.94351 19.8705 9.65668 18.6727 9.65668 17.4179C9.65668 15.3228 10.4725 13.3533 11.9538 11.8719C13.4219 10.4037 15.4237 9.57478 17.5001 9.57478C19.5949 9.57478 21.5646 10.3907 23.0459 11.8719C24.5272 13.3532 25.343 15.3229 25.343 17.4177C25.3432 19.4942 24.5141 21.4959 23.046 22.9641Z" fill="white"/>
<path d="M22.3614 19.5903L20.421 19.0332C20.1661 18.9602 19.8913 19.0325 19.7055 19.2219L19.2309 19.7052C19.0309 19.9092 18.7274 19.9746 18.4626 19.8675C17.5447 19.496 15.6139 17.7792 15.1211 16.9208C14.9786 16.6731 15.0022 16.3635 15.1769 16.1373L15.591 15.6014C15.7533 15.3915 15.7875 15.1094 15.6803 14.8667L14.864 13.0205C14.6685 12.5783 14.1034 12.4495 13.7342 12.7618C13.1927 13.2199 12.5502 13.9157 12.4722 14.6868C12.3345 16.0463 12.9176 17.7598 15.122 19.8175C17.6688 22.1949 19.7085 22.5088 21.0366 22.1871C21.7899 22.0048 22.3918 21.2735 22.7715 20.6746C23.0307 20.266 22.8259 19.7238 22.3614 19.5903Z" fill="white"/>
<path d="M24.3363 10.0977L22.8171 11.6547C22.8945 11.7262 22.9714 11.798 23.0462 11.8729C24.5276 13.3542 25.3434 15.3239 25.3434 17.4187C25.3434 19.4951 24.5143 21.4967 23.0462 22.9649C21.5649 24.4462 19.5952 25.2621 17.5002 25.2621C16.2736 25.2621 15.0991 24.9868 14.0094 24.4441L13.3051 24.0931L10.2037 24.8278L10.2678 24.5166L7.52153 27.3311C7.5821 27.5131 7.7748 27.637 7.98186 27.588L13.0401 26.3896C14.3397 27.037 15.7994 27.4108 17.3442 27.4344C22.796 27.5177 27.3419 23.189 27.5119 17.7391C27.6059 14.7221 26.3653 11.9931 24.3363 10.0977Z" fill="#D1D1D1"/>
<path d="M22.3615 19.5912L20.4212 19.0342C20.1663 18.9611 19.8915 19.0335 19.7056 19.2229L19.2311 19.7062C19.0311 19.9101 18.7275 19.9756 18.4627 19.8684C17.9325 19.6539 17.0647 18.9904 16.3309 18.3027L14.9821 19.6853C15.0283 19.7296 15.0745 19.7738 15.1222 19.8185C17.6691 22.1959 19.7087 22.5097 21.0369 22.1881C21.7901 22.0058 22.3921 21.2745 22.7717 20.6756C23.0308 20.267 22.826 19.7247 22.3615 19.5912Z" fill="#D1D1D1"/>
</g>
<defs>
<clipPath id="clip0">
<rect width="35" height="35" fill="white"/>
</clipPath>
</defs>
</svg>
